<svg width="50" height="59" viewBox="0 0 50 59" fill="none" xmlns="http://www.w3.org/2000/svg">
<path d="M17.1819 57.4448H3.1157C2.64937 57.4448 2.20215 57.2366 1.87241 56.8662C1.54267 56.4958 1.35742 55.9932 1.35742 55.4692V13.9818C1.35742 13.4579 1.54267 12.9554 1.87241 12.5849C2.20215 12.2144 2.64937 12.0062 3.1157 12.0062H26.4832C26.7158 12.0073 26.9459 12.0603 27.1603 12.162C27.3744 12.2637 27.5687 12.4122 27.7315 12.5989L34.2372 19.9086C34.567 20.279 34.7522 20.7814 34.7523 21.3053V27.811" stroke="white" stroke-width="2.5" stroke-linecap="round" stroke-linejoin="round"/>
<path d="M12.7408 35.1445H9.56378C9.35313 35.1445 9.15111 35.2156 9.00216 35.3422C8.85321 35.4688 8.76953 35.6405 8.76953 35.8196V44.596H13.535V35.8196C13.535 35.6405 13.4513 35.4688 13.3024 35.3422C13.1534 35.2156 12.9514 35.1445 12.7408 35.1445Z" stroke="white" stroke-width="1.5" stroke-linecap="round" stroke-linejoin="round"/>
<path d="M20.6822 25.6921H17.5052C17.2945 25.6921 17.0925 25.7687 16.9436 25.9051C16.7946 26.0414 16.7109 26.2264 16.7109 26.4192V44.5953H21.4764V26.4192C21.4764 26.2264 21.3927 26.0414 21.2438 25.9051C21.0948 25.7687 20.8928 25.6921 20.6822 25.6921Z" stroke="white" stroke-width="1.5" stroke-linecap="round" stroke-linejoin="round"/>
<path d="M28.6255 30.4165H25.4485C25.2379 30.4165 25.0359 30.4912 24.8869 30.6241C24.738 30.7571 24.6543 30.9374 24.6543 31.1254V44.5939H29.4198V31.1254C29.4198 30.9374 29.3361 30.7571 29.1871 30.6241C29.0382 30.4912 28.8362 30.4165 28.6255 30.4165Z" stroke="white" stroke-width="1.5" stroke-linecap="round" stroke-linejoin="round"/>
<path d="M49.088 2C49.088 1.30742 48.5301 0.745978 47.842 0.745978H36.6283C35.9402 0.745978 35.3824 1.30742 35.3824 2C35.3824 2.69258 35.9402 3.25402 36.6283 3.25402H46.596V13.2862C46.596 13.9788 47.1539 14.5402 47.842 14.5402C48.5301 14.5402 49.088 13.9788 49.088 13.2862V2ZM38.7873 12.8867L48.723 2.88673L46.961 1.11327L37.0252 11.1133L38.7873 12.8867Z" fill="white"/>
</svg>
