<svg width="53" height="46" viewBox="0 0 53 46" fill="none" xmlns="http://www.w3.org/2000/svg">
<path d="M24.2977 34.3082H48.8131V34.3082C50.2422 34.3082 51.4008 33.1497 51.4008 31.7205V29.6554V6.03853C51.4008 4.96743 50.9799 3.94021 50.2308 3.18285C49.4817 2.42548 48.4657 2 47.4064 2H15.4514C14.392 2 13.376 2.42548 12.627 3.18285C11.8779 3.94021 11.457 4.96743 11.457 6.03853V9.24341" stroke="white" stroke-width="2.5" stroke-linecap="round" stroke-linejoin="round"/>
<path d="M43.1531 41.4871H21.8555V40.0769H43.1531V41.4871Z" fill="white"/>
<path d="M30.7266 40.0274V34.6686H33.5289V40.0274H30.7266Z" fill="white"/>
<rect x="1.72852" y="14.2794" width="17.6162" height="30.435" rx="3" stroke="white" stroke-width="2"/>
<rect x="4.76133" y="18.1733" width="11.6604" height="22.6098" rx="1.6" stroke="white" stroke-width="0.8"/>
</svg>
