<svg width="826" height="137" viewBox="0 0 826 137" fill="none" xmlns="http://www.w3.org/2000/svg">
<path d="M0.492188 5.49792C47.2838 -6.31313 166.119 12.6762 390.968 82.5C524.107 123.845 554.908 136.501 825.16 119" stroke="#7D7C7C" stroke-width="3" stroke-linejoin="round" stroke-dasharray="3 7"/>
<path d="M725.015 123.978C725.713 124.498 725.821 125.503 725.251 126.162L720.231 131.959C719.373 132.951 717.748 132.444 717.607 131.141L716.487 120.767C716.347 119.464 717.826 118.618 718.876 119.401L725.015 123.978Z" fill="#7D7C7C"/>
<path d="M518.777 116.349C519.255 117.08 519.015 118.062 518.254 118.484L511.564 122.199C510.42 122.834 509.067 121.797 509.379 120.524L511.86 110.392C512.171 109.119 513.849 108.834 514.568 109.931L518.777 116.349Z" fill="#7D7C7C"/>
<path d="M318.178 59.6034C318.537 60.401 318.145 61.3341 317.326 61.6307L310.137 64.2365C308.908 64.6817 307.736 63.4429 308.244 62.2357L312.283 52.6227C312.791 51.4155 314.49 51.399 315.028 52.5962L318.178 59.6034Z" fill="#7D7C7C"/>
<path d="M115.747 10.6639C116.278 11.3561 116.111 12.3529 115.383 12.8311L108.986 17.0355C107.893 17.7543 106.466 16.8215 106.682 15.5295L108.409 5.23972C108.626 3.94771 110.278 3.5382 111.076 4.57856L115.747 10.6639Z" fill="#7D7C7C"/>
</svg>
