<svg width="46" height="47" viewBox="0 0 46 47" fill="none" xmlns="http://www.w3.org/2000/svg">
<path d="M17.4988 44.9998H3.09494C2.62532 44.9998 2.17493 44.8028 1.84285 44.4522C1.51078 44.1016 1.32422 43.6261 1.32422 43.1302V3.86956C1.32422 3.37372 1.51078 2.89819 1.84285 2.54758C2.17493 2.19697 2.62532 2 3.09494 2H26.6332C26.8658 2.0003 27.0962 2.04899 27.311 2.14331C27.5258 2.23762 27.7209 2.3757 27.8851 2.54965L34.4492 9.47822C34.7813 9.82875 34.9679 10.3042 34.968 10.8V14.673" stroke="white" stroke-width="2.5" stroke-linecap="round" stroke-linejoin="round"/>
<path d="M31.2515 22.7967C31.4461 23.0141 31.6838 23.1879 31.9494 23.3069C32.215 23.4258 32.5025 23.4873 32.7932 23.4873C33.0839 23.4873 33.3713 23.4258 33.6369 23.3069C33.9025 23.1879 34.1403 23.0141 34.3348 22.7967L35.3379 21.689C35.6254 21.3688 36.0042 21.146 36.4226 21.0511C36.8409 20.9563 37.2781 20.994 37.6742 21.1592C38.0703 21.3244 38.406 21.609 38.635 21.9738C38.8641 22.3386 38.9753 22.7659 38.9535 23.1969L38.8782 24.6909C38.8637 24.9824 38.9099 25.2736 39.014 25.546C39.1181 25.8184 39.2777 26.0658 39.4826 26.2723C39.6875 26.4787 39.933 26.6398 40.2035 26.7449C40.474 26.8501 40.7633 26.8971 41.0529 26.8828L42.5373 26.8071C42.9653 26.7858 43.3893 26.8983 43.7513 27.1291C44.1132 27.3599 44.3954 27.6977 44.5591 28.0963C44.7228 28.4948 44.7601 28.9345 44.6658 29.3552C44.5715 29.7759 44.3502 30.1569 44.0323 30.4461L42.9275 31.4492C42.7118 31.6453 42.5394 31.8848 42.4213 32.1521C42.3033 32.4195 42.2423 32.7088 42.2423 33.0014C42.2423 33.2939 42.3033 33.5833 42.4213 33.8506C42.5394 34.118 42.7118 34.3574 42.9275 34.5536L44.0323 35.5567C44.3505 35.846 44.5719 36.2273 44.6661 36.6484C44.7604 37.0694 44.7228 37.5094 44.5587 37.9081C44.3946 38.3068 44.1118 38.6446 43.7494 38.8751C43.3869 39.1057 42.9624 39.2176 42.5341 39.1957L41.0497 39.1199C40.7595 39.1049 40.4694 39.1513 40.1981 39.2563C39.9269 39.3612 39.6806 39.5223 39.4751 39.7291C39.2696 39.936 39.1095 40.1839 39.0053 40.4569C38.901 40.7299 38.8548 41.0219 38.8697 41.314L38.945 42.808C38.964 43.2368 38.8514 43.6612 38.6224 44.0233C38.3934 44.3855 38.0593 44.6679 37.6652 44.8323C37.2712 44.9967 36.8365 45.035 36.4201 44.942C36.0037 44.849 35.6259 44.6293 35.3379 44.3127L34.3401 43.2018C34.1454 42.9847 33.9076 42.8112 33.642 42.6924C33.3764 42.5736 33.0891 42.5122 32.7985 42.5122C32.5079 42.5122 32.2205 42.5736 31.9549 42.6924C31.6894 42.8112 31.4515 42.9847 31.2568 43.2018L30.2548 44.3127C29.9673 44.6308 29.5893 44.8519 29.1723 44.9459C28.7553 45.0399 28.3197 45.0021 27.9248 44.8378C27.53 44.6735 27.195 44.3907 26.9657 44.0278C26.7364 43.6649 26.6239 43.2397 26.6434 42.8101L26.7198 41.3161C26.7347 41.024 26.6885 40.732 26.5843 40.459C26.48 40.186 26.3199 39.9381 26.1144 39.7313C25.909 39.5245 25.6626 39.3634 25.3914 39.2584C25.1201 39.1535 24.83 39.107 24.5398 39.122L23.0554 39.1978C22.6273 39.2203 22.2028 39.1089 21.8402 38.8788C21.4776 38.6488 21.1946 38.3115 21.0301 37.9131C20.8656 37.5147 20.8276 37.0748 20.9214 36.6539C21.0152 36.2329 21.2362 35.8515 21.554 35.562L22.6578 34.5589C22.8735 34.3628 23.0459 34.1233 23.1639 33.856C23.282 33.5886 23.3429 33.2993 23.3429 33.0067C23.3429 32.7141 23.282 32.4248 23.1639 32.1575C23.0459 31.8901 22.8735 31.6506 22.6578 31.4545L21.554 30.4461C21.2372 30.1569 21.0169 29.7763 20.9232 29.3563C20.8295 28.9363 20.867 28.4975 21.0304 28.0997C21.1939 27.702 21.4755 27.3647 21.8366 27.1341C22.1977 26.9035 22.6208 26.7908 23.048 26.8113L24.5324 26.8871C24.8231 26.9025 25.1139 26.8562 25.3857 26.7511C25.6575 26.646 25.9043 26.4846 26.1101 26.2773C26.3159 26.07 26.476 25.8214 26.5802 25.5477C26.6843 25.2741 26.73 24.9814 26.7145 24.6888L26.6434 23.1937C26.6234 22.7639 26.7356 22.3384 26.9647 21.9751C27.1939 21.6119 27.5288 21.3287 27.9238 21.1641C28.3188 20.9996 28.7546 20.9617 29.1718 21.0556C29.5889 21.1495 29.9672 21.3707 30.2548 21.689L31.2515 22.7967Z" stroke="white" stroke-width="2" stroke-linecap="round" stroke-linejoin="round"/>
<path d="M32.7909 37.8054C35.426 37.8054 37.5622 35.6554 37.5622 33.0032C37.5622 30.3511 35.426 28.201 32.7909 28.201C30.1557 28.201 28.0195 30.3511 28.0195 33.0032C28.0195 35.6554 30.1557 37.8054 32.7909 37.8054Z" stroke="white" stroke-width="2" stroke-linecap="round" stroke-linejoin="round"/>
</svg>
