<?xml version="1.0" encoding="UTF-8"?><svg id="a" xmlns="http://www.w3.org/2000/svg" xmlns:xlink="http://www.w3.org/1999/xlink" viewBox="0 0 628 409"><defs><style>.bc,.bd,.be,.bf{fill:#fff;}.bg{fill:#9ca5b0;}.bh{stroke:#fff;}.bh,.bd,.bi,.bj,.be,.bk,.bl,.bm,.bn,.bo,.bp,.bq,.bf,.br,.bs{stroke-miterlimit:10;}.bh,.bj,.bk,.bl,.bt,.bu,.bn,.bo,.bp,.bq,.br,.bs{fill:none;}.bh,.bt{stroke-width:1.2px;}.bv{fill:#6f5dfd;}.bw,.bx{fill:#eff0f2;}.by{clip-path:url(#d);}.bz,.ca{fill:#0f1048;}.bd,.bi,.be,.bm,.bn{stroke-width:1.02px;}.bd,.bi,.bl{stroke:#7272ff;}.bi{fill:#dedeff;}.cb,.bm{fill:#e0e3e7;}.cc{fill:#878685;}.ca{filter:url(#am);}.bj,.be,.bm{stroke:#b3bac3;}.bj,.bp,.bf,.br,.bs{stroke-width:.5px;}.cd{fill:#3874f0;}.bk{stroke-width:.9px;}.bk,.bo,.bs{stroke:#e0e3e7;}.bt{stroke:#2cc6ab;stroke-linejoin:round;}.bt,.bp{stroke-linecap:round;}.ce{fill:#66c1dd;}.cf{fill:url(#ag);}.cg{fill:#65c2ab;}.bn{stroke:#9ca5b0;}.ch{fill:#2cc6ab;}.bx{filter:url(#f);}.bo{stroke-width:.75px;}.ci{fill:#cacfd5;}.bp{stroke:#878685;}.bq{stroke:#ff8f24;}.bf{filter:url(#aj);stroke:#0f1048;}.br{stroke:#000;}</style><clipPath id="d"><rect id="e" class="bu" x="138.45" y="46.96" width="442.04" height="245.34"/></clipPath><filter id="f" filterUnits="userSpaceOnUse"><feOffset dx="0" dy="0"/><feGaussianBlur result="g" stdDeviation="30"/><feFlood flood-color="#31b3eb" flood-opacity=".2"/><feComposite in2="g" operator="in"/><feComposite in="SourceGraphic"/></filter><linearGradient id="ag" x1="358.7" y1="263.29" x2="358.7" y2="306.57" gradientUnits="userSpaceOnUse"><stop offset="0" stop-color="#0f1048" stop-opacity="0"/><stop offset=".98" stop-color="#0f1048"/></linearGradient><filter id="aj" filterUnits="userSpaceOnUse"><feOffset dx="0" dy="0"/><feGaussianBlur result="ak" stdDeviation="30"/><feFlood flood-color="#31b3eb" flood-opacity=".2"/><feComposite in2="ak" operator="in"/><feComposite in="SourceGraphic"/></filter><filter id="am" filterUnits="userSpaceOnUse"><feOffset dx="0" dy="0"/><feGaussianBlur result="an" stdDeviation="26.86"/><feFlood flood-color="#31b3eb" flood-opacity=".2"/><feComposite in2="an" operator="in"/><feComposite in="SourceGraphic"/></filter></defs><g id="b"><g id="c"><g class="by"><g><path id="h" class="bx" d="m212.01,90.33h293.37c18,0,32.61,14.61,32.61,32.61v185.05H179.41V122.94c0-18,14.61-32.61,32.61-32.61Z"/><g id="i"><rect id="j" class="ce" x="179.31" y="115" width="358.69" height="24"/><path id="k" class="bw" d="m218,121h33c2.21,0,4,1.79,4,4v16h-41v-16c0-2.21,1.79-4,4-4Z"/><g><path d="m341.02,131.03l-.49,1.48h-.63l1.6-4.72h.74l1.61,4.72h-.65l-.5-1.48h-1.67Zm1.55-.48l-.46-1.36c-.1-.31-.18-.59-.25-.86h-.01c-.07.28-.15.57-.24.85l-.46,1.37h1.42Z"/><path d="m344.5,130.04c0-.35,0-.64-.03-.92h.55l.03.56h.01c.17-.32.56-.64,1.12-.64.47,0,1.2.28,1.2,1.44v2.02h-.62v-1.95c0-.55-.2-1-.78-1-.41,0-.72.29-.83.63-.03.08-.04.18-.04.29v2.04h-.62v-2.47Z"/><path d="m350.26,132.51l-.05-.43h-.02c-.19.27-.55.5-1.04.5-.69,0-1.04-.48-1.04-.97,0-.82.73-1.27,2.04-1.26v-.07c0-.28-.08-.78-.77-.78-.31,0-.64.1-.88.25l-.14-.41c.28-.18.69-.3,1.11-.3,1.04,0,1.29.71,1.29,1.39v1.27c0,.29.01.58.06.81h-.56Zm-.09-1.73c-.67-.01-1.44.1-1.44.76,0,.4.27.59.58.59.44,0,.72-.28.82-.57.02-.06.04-.13.04-.2v-.59Z"/><path d="m351.76,127.54h.62v4.97h-.62v-4.97Z"/><path d="m353.64,129.12l.74,2c.08.22.16.49.22.69h.01c.06-.2.13-.46.22-.71l.67-1.99h.65l-.92,2.42c-.44,1.16-.74,1.76-1.16,2.12-.3.27-.6.37-.76.4l-.15-.52c.15-.05.36-.15.54-.3.17-.13.38-.37.52-.69.03-.06.05-.11.05-.15s-.01-.08-.04-.16l-1.25-3.12h.67Z"/><path d="m356.32,132.15l1.53-2c.15-.18.29-.34.44-.53h0s-1.83-.01-1.83-.01v-.5h2.58v.39s-1.52,1.97-1.52,1.97c-.14.19-.28.36-.43.53h0s1.98.01,1.98.01v.49h-2.75v-.36Z"/><path d="m360,130.93c.01.83.55,1.18,1.16,1.18.44,0,.71-.08.94-.18l.1.44c-.22.1-.59.21-1.13.21-1.04,0-1.67-.69-1.67-1.71s.6-1.83,1.59-1.83c1.11,0,1.4.97,1.4,1.6,0,.13-.01.22-.02.29h-2.38Zm1.81-.44c0-.39-.16-1-.85-1-.62,0-.9.57-.95,1h1.8Z"/></g><g><path d="m305.37,127.85c.29-.05.68-.09,1.17-.09.6,0,1.04.14,1.32.39.26.22.41.57.41.99s-.13.76-.36,1.01c-.32.34-.85.52-1.44.52-.18,0-.35,0-.49-.04v1.89h-.61v-4.66Zm.61,2.28c.13.04.3.05.5.05.74,0,1.18-.36,1.18-1.01s-.44-.92-1.11-.92c-.27,0-.47.02-.57.05v1.83Z"/><path d="m311.8,131.59c0,.35,0,.66.03.92h-.55l-.04-.55h-.01c-.16.27-.52.63-1.12.63-.53,0-1.17-.29-1.17-1.48v-1.98h.62v1.88c0,.64.2,1.08.76,1.08.41,0,.7-.29.81-.56.04-.09.06-.2.06-.31v-2.08h.62v2.47Z"/><path d="m312.79,132.51c.01-.23.03-.57.03-.88v-4.1h.61v2.13h.01c.22-.38.61-.62,1.16-.62.84,0,1.44.7,1.43,1.73,0,1.21-.76,1.81-1.52,1.81-.49,0-.88-.19-1.13-.64h-.02l-.03.56h-.53Zm.64-1.36c0,.08.01.15.03.22.12.43.48.72.92.72.64,0,1.03-.53,1.03-1.3,0-.68-.35-1.26-1.01-1.26-.42,0-.81.29-.94.76-.01.07-.04.15-.04.25v.61Z"/><path d="m316.8,127.54h.62v4.97h-.62v-4.97Z"/><path d="m319.14,128.17c0,.21-.15.38-.39.38-.22,0-.37-.17-.37-.38s.16-.39.39-.39.38.17.38.39Zm-.69,4.34v-3.39h.62v3.39h-.62Z"/><path d="m320.01,131.88c.18.12.5.25.81.25.45,0,.66-.22.66-.5s-.17-.46-.63-.62c-.61-.22-.9-.55-.9-.96,0-.55.44-.99,1.17-.99.34,0,.64.1.83.21l-.15.45c-.13-.08-.38-.2-.69-.2-.36,0-.57.21-.57.46,0,.28.2.41.64.57.59.22.89.52.89,1.02,0,.6-.46,1.02-1.27,1.02-.37,0-.71-.09-.95-.23l.15-.47Z"/><path d="m322.87,127.54h.62v2.12h.01c.1-.18.25-.33.44-.43.18-.1.4-.17.63-.17.46,0,1.18.28,1.18,1.45v2.02h-.62v-1.95c0-.55-.2-1.01-.78-1.01-.4,0-.71.28-.83.62-.03.08-.04.18-.04.29v2.04h-.62v-4.97Z"/></g><g><path d="m267.77,132.36c-.22.11-.67.22-1.25.22-1.33,0-2.33-.84-2.33-2.39s1-2.48,2.47-2.48c.59,0,.96.13,1.12.21l-.15.5c-.23-.11-.56-.2-.95-.2-1.11,0-1.84.71-1.84,1.95,0,1.16.67,1.9,1.81,1.9.37,0,.75-.08.99-.2l.13.48Z"/><path d="m271.5,130.79c0,1.25-.87,1.8-1.69,1.8-.92,0-1.62-.67-1.62-1.74,0-1.13.74-1.8,1.68-1.8s1.63.71,1.63,1.74Zm-2.69.04c0,.74.43,1.3,1.03,1.3s1.03-.55,1.03-1.32c0-.57-.29-1.3-1.02-1.3s-1.04.67-1.04,1.32Z"/><path d="m272.28,130.04c0-.35,0-.64-.03-.92h.55l.03.56h.01c.17-.32.56-.64,1.12-.64.47,0,1.2.28,1.2,1.44v2.02h-.62v-1.95c0-.55-.2-1-.78-1-.41,0-.72.29-.83.63-.03.08-.04.18-.04.29v2.04h-.62v-2.47Z"/><path d="m276.23,132.51v-2.92h-.48v-.47h.48v-.18c0-.9.53-1.48,1.48-1.48.31,0,.69.1.86.22l-.18.47c-.15-.1-.41-.2-.71-.2-.65,0-.84.46-.84.99v.17h1.97v3.39h-.61v-2.92h-1.36v2.92h-.61Z"/><path d="m282.75,129.12c-.01.25-.03.52-.03.93v1.97c0,.78-.15,1.25-.48,1.55-.33.31-.81.41-1.23.41s-.85-.1-1.13-.28l.15-.47c.22.14.57.27.99.27.63,0,1.09-.33,1.09-1.18v-.38h-.01c-.19.32-.55.57-1.08.57-.84,0-1.44-.71-1.44-1.65,0-1.15.75-1.8,1.53-1.8.59,0,.91.31,1.06.59h.01l.03-.51h.54Zm-.64,1.34c0-.1,0-.2-.04-.28-.11-.36-.41-.65-.86-.65-.59,0-1.01.5-1.01,1.28,0,.67.34,1.22,1,1.22.38,0,.72-.24.85-.63.03-.1.05-.22.05-.33v-.61Z"/><path d="m286.57,131.59c0,.35,0,.66.03.92h-.55l-.04-.55h-.01c-.16.27-.52.63-1.12.63-.53,0-1.17-.29-1.17-1.48v-1.98h.62v1.88c0,.64.2,1.08.76,1.08.41,0,.7-.29.81-.56.04-.09.06-.2.06-.31v-2.08h.62v2.47Z"/><path d="m287.59,130.18c0-.4,0-.74-.03-1.06h.54l.02.67h.03c.15-.46.52-.74.94-.74.07,0,.12,0,.17.02v.58c-.06-.01-.13-.02-.21-.02-.43,0-.74.33-.83.79-.01.08-.03.18-.03.29v1.81h-.61v-2.33Z"/><path d="m290.16,130.93c.01.83.55,1.18,1.16,1.18.44,0,.71-.08.94-.18l.1.44c-.22.1-.59.21-1.13.21-1.04,0-1.67-.69-1.67-1.71s.6-1.83,1.59-1.83c1.11,0,1.4.97,1.4,1.6,0,.13-.01.22-.02.29h-2.38Zm1.81-.44c0-.39-.16-1-.85-1-.62,0-.9.57-.95,1h1.8Z"/></g><g><path d="m228.88,132.36c-.22.11-.67.22-1.25.22-1.33,0-2.33-.84-2.33-2.39s1-2.48,2.47-2.48c.59,0,.96.13,1.12.21l-.15.5c-.23-.11-.56-.2-.95-.2-1.11,0-1.84.71-1.84,1.95,0,1.16.67,1.9,1.81,1.9.37,0,.75-.08.99-.2l.13.48Z"/><path d="m229.6,130.18c0-.4,0-.74-.03-1.06h.54l.02.67h.03c.15-.46.52-.74.94-.74.07,0,.12,0,.17.02v.58c-.06-.01-.13-.02-.21-.02-.43,0-.74.33-.83.79-.01.08-.03.18-.03.29v1.81h-.61v-2.33Z"/><path d="m232.16,130.93c.01.83.55,1.18,1.16,1.18.44,0,.71-.08.94-.18l.1.44c-.22.1-.59.21-1.13.21-1.04,0-1.67-.69-1.67-1.71s.6-1.83,1.59-1.83c1.11,0,1.4.97,1.4,1.6,0,.13-.01.22-.02.29h-2.38Zm1.81-.44c0-.39-.16-1-.85-1-.62,0-.9.57-.95,1h1.8Z"/><path d="m237.2,132.51l-.05-.43h-.02c-.19.27-.55.5-1.04.5-.69,0-1.04-.48-1.04-.97,0-.82.73-1.27,2.04-1.26v-.07c0-.28-.08-.78-.77-.78-.31,0-.64.1-.88.25l-.14-.41c.28-.18.69-.3,1.11-.3,1.04,0,1.29.71,1.29,1.39v1.27c0,.29.01.58.06.81h-.56Zm-.09-1.73c-.67-.01-1.44.1-1.44.76,0,.4.27.59.58.59.44,0,.72-.28.82-.57.02-.06.04-.13.04-.2v-.59Z"/><path d="m239.41,128.15v.97h.88v.47h-.88v1.83c0,.42.12.66.46.66.16,0,.28-.02.36-.04l.03.46c-.12.05-.31.08-.55.08-.29,0-.52-.09-.67-.26-.18-.18-.24-.48-.24-.88v-1.85h-.53v-.47h.53v-.81l.6-.16Z"/><path d="m241.29,130.93c.01.83.55,1.18,1.16,1.18.44,0,.71-.08.94-.18l.1.44c-.22.1-.59.21-1.13.21-1.04,0-1.67-.69-1.67-1.71s.6-1.83,1.59-1.83c1.11,0,1.4.97,1.4,1.6,0,.13-.01.22-.02.29h-2.38Zm1.81-.44c0-.39-.16-1-.85-1-.62,0-.9.57-.95,1h1.8Z"/></g></g><g id="l"><path id="m" class="bz" d="m537.99,116v-14.75c0-6.03-6.06-10.92-13.54-10.92H192.95c-7.48,0-13.54,4.89-13.54,10.92v14.75h358.58Z"/><g id="n"><path class="bc" d="m379.98,104.11h.77c.02.44.43.87,1.07.87s.98-.39.98-.82c0-.46-.41-.68-.83-.79l-.66-.17c-1.1-.28-1.28-.93-1.28-1.36,0-.91.8-1.52,1.72-1.52s1.66.59,1.66,1.53h-.77c0-.49-.38-.83-.92-.83-.49,0-.92.32-.92.8,0,.17.05.5.71.68l.65.18c.87.23,1.42.68,1.42,1.43,0,.86-.71,1.56-1.75,1.56-1.1,0-1.84-.74-1.84-1.58Z"/><path class="bc" d="m387.77,104.14h-2.79c.1.57.52.86,1.08.86.41,0,.8-.19.99-.51l.59.29c-.31.59-.94.9-1.61.9-1.01,0-1.81-.74-1.81-1.85s.81-1.83,1.81-1.83,1.76.72,1.76,1.82c0,.1,0,.2-.02.32Zm-.72-.59c-.08-.55-.47-.86-1.01-.86s-.95.28-1.05.86h2.06Z"/><path class="bc" d="m390.37,102.09v.62h-.75v2.89h-.74v-2.89h-.63v-.62h.63v-1.31h.74v1.31h.75Z"/><path class="bc" d="m392.85,102.09v.62h-.75v2.89h-.74v-2.89h-.63v-.62h.63v-1.31h.74v1.31h.75Z"/><path class="bc" d="m393.41,100.81c0-.27.23-.47.5-.47s.5.2.5.47-.23.47-.5.47-.5-.2-.5-.47Zm.13,4.78v-3.51h.74v3.51h-.74Z"/><path class="bc" d="m398.66,103.59v2h-.74v-1.96c0-.57-.35-.92-.8-.92s-1.01.26-1.01.99v1.88h-.74v-3.51h.74v.54c.2-.44.77-.63,1.14-.63.89,0,1.41.59,1.4,1.59Z"/><path class="bc" d="m402.44,102.09h.74v3.03c0,1.63-.75,2.27-1.93,2.27-.66,0-1.28-.35-1.61-.97l.62-.31c.2.38.6.59.98.59.74,0,1.19-.42,1.19-1.53v-.09c-.24.38-.74.6-1.21.6-.95,0-1.74-.74-1.74-1.85s.79-1.84,1.73-1.84c.49,0,.98.21,1.22.6v-.51Zm0,1.74c0-.71-.58-1.14-1.12-1.14-.6,0-1.09.48-1.09,1.14s.49,1.16,1.09,1.16,1.12-.46,1.12-1.16Z"/><path class="bc" d="m404.01,104.54h.68c0,.28.25.52.65.52s.65-.2.65-.47c0-.23-.19-.35-.45-.41l-.47-.11c-.65-.17-.95-.51-.95-1.03,0-.57.52-1.04,1.25-1.04.6,0,1.25.32,1.25,1.05h-.71c0-.26-.26-.43-.53-.43-.31,0-.52.2-.52.44,0,.22.2.34.42.39l.53.13c.75.19.92.65.92,1.03,0,.67-.66,1.07-1.38,1.07-.65,0-1.32-.41-1.34-1.14Z"/></g><g id="o"><path class="bc" d="m345.26,105.89l-1.33-1.93h-.59v1.93h-.77v-5.17h1.97c1.13,0,1.59.82,1.59,1.64,0,.74-.45,1.52-1.31,1.61l1.36,1.93h-.92Zm-1.91-4.47v1.86h1.01c.71,0,1.01-.38,1.01-.93s-.32-.93-.83-.93h-1.19Z"/><path class="bc" d="m350.27,104.44h-2.79c.1.57.52.86,1.08.86.41,0,.8-.19.99-.51l.59.29c-.31.59-.94.9-1.61.9-1.01,0-1.81-.74-1.81-1.85s.81-1.83,1.81-1.83,1.76.72,1.76,1.82c0,.1,0,.2-.02.32Zm-.72-.59c-.08-.55-.47-.86-1.01-.86s-.95.28-1.05.86h2.06Z"/><path class="bc" d="m354.83,104.15c0,1.12-.79,1.84-1.74,1.84-.5,0-.98-.21-1.22-.61v2.22h-.74v-5.21h.74v.53c.23-.4.74-.62,1.22-.62.95,0,1.74.74,1.74,1.85Zm-.74,0c0-.66-.48-1.16-1.09-1.16s-1.12.46-1.12,1.16.58,1.14,1.12,1.14c.61,0,1.09-.48,1.09-1.14Z"/><path class="bc" d="m355.48,104.14c0-1.11.84-1.84,1.84-1.84s1.85.73,1.85,1.84-.85,1.85-1.85,1.85-1.84-.74-1.84-1.85Zm2.95,0c0-.68-.51-1.15-1.11-1.15s-1.1.47-1.1,1.15.5,1.16,1.1,1.16,1.11-.47,1.11-1.16Z"/><path class="bc" d="m362.36,102.43l-.13.7c-.2-.09-.38-.12-.52-.12-.64,0-.94.68-.94,1.63v1.26h-.74v-3.51h.74v.79c.18-.62.53-.88.98-.88.24,0,.49.06.6.13Z"/><path class="bc" d="m364.76,102.39v.62h-.75v2.89h-.74v-2.89h-.63v-.62h.63v-1.31h.74v1.31h.75Z"/><path class="bc" d="m365.17,104.84h.68c0,.28.25.52.65.52s.65-.2.65-.47c0-.23-.19-.35-.45-.41l-.47-.11c-.65-.17-.95-.51-.95-1.03,0-.57.52-1.04,1.25-1.04.6,0,1.25.32,1.25,1.05h-.71c0-.26-.26-.43-.53-.43-.31,0-.52.2-.52.44,0,.22.2.34.42.39l.53.13c.75.19.92.65.92,1.03,0,.67-.66,1.07-1.38,1.07-.65,0-1.32-.41-1.34-1.14Z"/></g><g id="p"><path class="bc" d="m303.81,103.32c0-1.47,1.15-2.69,2.62-2.69.71,0,1.34.28,1.79.71l-.54.5c-.32-.3-.77-.5-1.25-.5-1.04,0-1.85.91-1.85,1.97s.8,1.95,1.85,1.95c.87,0,1.61-.58,1.61-1.34h-1.49v-.66h2.33c0,1.84-.98,2.71-2.45,2.71s-2.63-1.2-2.63-2.67Z"/><path class="bc" d="m312.01,102.43l-.13.7c-.2-.09-.38-.12-.52-.12-.64,0-.94.68-.94,1.63v1.26h-.74v-3.51h.74v.79c.18-.62.53-.88.98-.88.24,0,.49.06.6.13Z"/><path class="bc" d="m312.29,104.14c0-1.11.84-1.84,1.84-1.84s1.85.73,1.85,1.84-.85,1.85-1.85,1.85-1.84-.74-1.84-1.85Zm2.95,0c0-.68-.51-1.15-1.11-1.15s-1.1.47-1.1,1.15.5,1.16,1.1,1.16,1.11-.47,1.11-1.16Z"/><path class="bc" d="m319.35,102.39h.74v3.51h-.74v-.53c-.2.43-.77.62-1.13.62-.89,0-1.42-.59-1.41-1.59v-2h.74v1.98c0,.58.35.92.8.92s1.01-.27,1.01-1v-1.91Z"/><path class="bc" d="m324.87,104.15c0,1.12-.79,1.84-1.74,1.84-.5,0-.98-.21-1.22-.61v2.22h-.74v-5.21h.74v.53c.23-.4.74-.62,1.22-.62.95,0,1.74.74,1.74,1.85Zm-.74,0c0-.66-.48-1.16-1.09-1.16s-1.12.46-1.12,1.16.58,1.14,1.12,1.14c.61,0,1.09-.48,1.09-1.14Z"/><path class="bc" d="m325.48,104.84h.68c0,.28.25.52.65.52s.65-.2.65-.47c0-.23-.19-.35-.45-.41l-.47-.11c-.65-.17-.95-.51-.95-1.03,0-.57.52-1.04,1.25-1.04.6,0,1.25.32,1.25,1.05h-.71c0-.26-.26-.43-.53-.43-.31,0-.52.2-.52.44,0,.22.2.34.42.39l.53.13c.75.19.92.65.92,1.03,0,.67-.66,1.07-1.38,1.07-.65,0-1.32-.41-1.34-1.14Z"/></g><g id="q"><path class="bc" d="m272.63,104.11v-3.39h.77v3.39c0,.79.53,1.14,1.13,1.14s1.14-.35,1.14-1.14v-3.39h.77v3.39c0,1.19-.89,1.87-1.91,1.87s-1.91-.68-1.91-1.87Z"/><path class="bc" d="m277.28,104.84h.68c0,.28.25.52.65.52s.65-.2.65-.47c0-.23-.19-.35-.45-.41l-.47-.11c-.65-.17-.95-.51-.95-1.03,0-.57.52-1.04,1.25-1.04.6,0,1.25.32,1.25,1.05h-.71c0-.26-.26-.43-.53-.43-.31,0-.52.2-.52.44,0,.22.2.34.42.39l.53.13c.75.19.92.65.92,1.03,0,.67-.66,1.07-1.38,1.07-.65,0-1.32-.41-1.34-1.14Z"/><path class="bc" d="m284.19,104.44h-2.79c.1.57.52.86,1.08.86.41,0,.8-.19.99-.51l.59.29c-.31.59-.94.9-1.61.9-1.01,0-1.81-.74-1.81-1.85s.81-1.83,1.81-1.83,1.76.72,1.76,1.82c0,.1,0,.2-.02.32Zm-.72-.59c-.08-.55-.47-.86-1.01-.86s-.95.28-1.05.86h2.06Z"/><path class="bc" d="m287.39,102.43l-.13.7c-.19-.09-.38-.12-.52-.12-.64,0-.94.68-.94,1.63v1.26h-.74v-3.51h.74v.79c.18-.62.53-.88.98-.88.24,0,.49.06.6.13Z"/><path class="bc" d="m287.71,104.84h.68c0,.28.25.52.65.52s.65-.2.65-.47c0-.23-.19-.35-.45-.41l-.47-.11c-.65-.17-.95-.51-.95-1.03,0-.57.52-1.04,1.25-1.04.6,0,1.25.32,1.25,1.05h-.71c0-.26-.26-.43-.53-.43-.31,0-.52.2-.52.44,0,.22.2.34.42.39l.53.13c.75.19.92.65.92,1.03,0,.67-.66,1.07-1.38,1.07-.65,0-1.32-.41-1.34-1.14Z"/></g><g id="r"><g><path class="bc" d="m225.68,100.72c1.46,0,2.31,1.13,2.31,2.6s-.85,2.58-2.31,2.58h-1.99v-5.17h1.99Zm0,4.47c1.02,0,1.55-.82,1.55-1.87s-.53-1.89-1.55-1.89h-1.22v3.76h1.22Z"/><path class="bc" d="m231.59,102.39h.73v3.51h-.73v-.59c-.22.41-.7.68-1.23.68-.9,0-1.68-.77-1.68-1.85s.73-1.84,1.71-1.84c.5,0,.98.22,1.2.62v-.53Zm0,1.75c0-.68-.56-1.15-1.11-1.15-.59,0-1.06.53-1.06,1.15s.47,1.16,1.08,1.16,1.1-.5,1.1-1.16Z"/><path class="bc" d="m233.16,104.84h.67c0,.28.25.52.64.52s.65-.2.65-.47c0-.23-.19-.35-.44-.41l-.47-.11c-.65-.17-.94-.51-.94-1.03,0-.57.51-1.04,1.23-1.04.59,0,1.23.32,1.23,1.05h-.7c0-.26-.26-.43-.52-.43-.3,0-.51.2-.51.44,0,.22.2.34.42.39l.53.13c.74.19.9.65.9,1.03,0,.67-.65,1.07-1.36,1.07-.65,0-1.31-.41-1.32-1.14Z"/><path class="bc" d="m239.93,103.89v2h-.73v-1.96c0-.57-.34-.92-.79-.92s-1,.27-1,.99v1.88h-.73v-5.41h.73v2.44c.2-.43.76-.62,1.13-.62.88,0,1.39.59,1.39,1.59Z"/><path class="bc" d="m244.62,104.14c0,1.11-.79,1.85-1.72,1.85-.47,0-.97-.22-1.2-.62v.53h-.73v-5.41h.73v2.42c.23-.4.71-.61,1.2-.61.94,0,1.72.72,1.72,1.84Zm-.73,0c0-.66-.47-1.14-1.08-1.14-.53,0-1.1.44-1.1,1.14s.53,1.16,1.1,1.16,1.08-.51,1.08-1.16Z"/><path class="bc" d="m245.26,104.14c0-1.11.83-1.84,1.82-1.84s1.82.73,1.82,1.84-.84,1.85-1.82,1.85-1.82-.74-1.82-1.85Zm2.91,0c0-.68-.5-1.15-1.1-1.15s-1.09.47-1.09,1.15.5,1.16,1.09,1.16,1.1-.47,1.1-1.16Z"/><path class="bc" d="m252.45,102.39h.73v3.51h-.73v-.59c-.22.41-.7.68-1.23.68-.9,0-1.68-.77-1.68-1.85s.73-1.84,1.71-1.84c.5,0,.98.22,1.2.62v-.53Zm0,1.75c0-.68-.56-1.15-1.11-1.15-.59,0-1.06.53-1.06,1.15s.47,1.16,1.08,1.16,1.1-.5,1.1-1.16Z"/><path class="bc" d="m256.57,102.43l-.13.7c-.19-.09-.37-.12-.51-.12-.63,0-.93.68-.93,1.63v1.26h-.73v-3.51h.73v.79c.18-.62.53-.88.97-.88.24,0,.48.06.59.13Z"/><path class="bc" d="m259.77,100.48h.73v5.41h-.73v-.53c-.23.4-.73.62-1.19.62-.94,0-1.72-.74-1.72-1.85s.78-1.84,1.71-1.84c.49,0,.97.21,1.2.61v-2.42Zm0,3.65c0-.71-.57-1.14-1.1-1.14-.59,0-1.08.48-1.08,1.14s.48,1.16,1.08,1.16,1.1-.46,1.1-1.16Z"/></g></g><g id="s"><path id="t" class="bc" d="m529.43,103.72c.22-.22.22-.59,0-.81l-2.29-2.29c-.22-.22-.59-.22-.81,0s-.22.59,0,.81l1.31,1.31h-3.76c-.32,0-.57.26-.57.57s.26.57.57.57h3.76l-1.31,1.31c-.22.22-.22.59,0,.81s.59.22.81,0l2.29-2.29h0Zm-6.12-3.26c.32,0,.57-.26.57-.57s-.26-.57-.57-.57h-1.14c-.95,0-1.71.77-1.71,1.71v4.57c0,.95.77,1.71,1.71,1.71h1.14c.32,0,.57-.26.57-.57s-.26-.57-.57-.57h-1.14c-.32,0-.57-.26-.57-.57v-4.57c0-.32.26-.57.57-.57h1.14Z"/><path id="u" class="bc" d="m509.3,99.07c-.29,0-.53.24-.53.53v.3c-1.2.19-2.12,1.23-2.12,2.49v.55c0,.75-.26,1.49-.73,2.07l-.25.31c-.1.12-.11.28-.05.42s.21.23.36.23h6.64c.15,0,.29-.09.36-.23s.05-.3-.05-.42l-.25-.31c-.47-.59-.73-1.32-.73-2.08v-.55c0-1.26-.92-2.3-2.12-2.49v-.3c0-.29-.24-.53-.53-.53Zm0,1.59h.13c.95,0,1.73.77,1.73,1.73v.55c0,.8.23,1.57.66,2.23h-5.04c.43-.66.66-1.44.66-2.23v-.55c0-.95.77-1.73,1.73-1.73h.13Zm1.06,5.84h-2.12c0,.28.11.55.31.75s.47.31.75.31.55-.11.75-.31.31-.47.31-.75Z"/><path id="v" class="bc" d="m498.04,103.32c0-1.91-1.55-3.45-3.45-3.45s-3.45,1.55-3.45,3.45,1.55,3.45,3.45,3.45,3.45-1.55,3.45-3.45Zm-7.7,0c0-2.35,1.9-4.25,4.25-4.25s4.25,1.9,4.25,4.25-1.9,4.25-4.25,4.25-4.25-1.9-4.25-4.25Zm2.82-1.51c.13-.37.48-.62.88-.62h.97c.58,0,1.05.47,1.05,1.05,0,.38-.2.72-.53.91l-.54.31c0,.22-.18.39-.4.39s-.4-.18-.4-.4v-.22c0-.14.08-.27.2-.35l.74-.42c.08-.04.13-.13.13-.22,0-.14-.11-.25-.25-.25h-.97c-.06,0-.11.03-.12.09v.02c-.08.21-.31.32-.51.24s-.32-.3-.24-.51v-.02s0,0,0,0Zm.9,3.1c0-.29.24-.53.53-.53s.53.24.53.53-.24.53-.53.53-.53-.24-.53-.53Z"/></g></g><g id="w"><rect class="cg" x="196.79" y="107.58" width="4.42" height="4.42" rx="2.21" ry="2.21"/><path class="bv" d="m199,101.69h4.42c1.22,0,2.21.99,2.21,2.21h0c0,1.22-.99,2.21-2.21,2.21h-6.63v-2.21c0-1.22.99-2.21,2.21-2.21Z"/><path class="cd" d="m198.56,95.8h8.84c1.22,0,2.21.99,2.21,2.21h0c0,1.22-.99,2.21-2.21,2.21h-11.05v-2.21c0-1.22.99-2.21,2.21-2.21Z"/></g><g id="x"><rect id="y" class="bc" x="197.59" y="150.01" width="325.48" height="164.53" rx="13.13" ry="13.13"/><path id="z" class="ci" d="m523.07,167.7v-12.24c0-3.01-2.44-5.45-5.45-5.45H203.04c-3.01,0-5.45,2.44-5.45,5.45v12.24h325.48Z"/><g id="aa"><g><path d="m211.31,185.82v-5.11h.49v5.11h-.49Z"/><path d="m214.69,180.93c-.65,0-.84.44-.84.99v.44h.88v.41h-.88v3.06h-.47v-3.06h-.68v-.41h.68v-.39c0-.87.34-1.5,1.25-1.5h.33v.45h-.26Z"/><path d="m220.14,182.36h.47v2.99c0,1.68-.75,2.25-1.88,2.25-.59,0-1.16-.29-1.5-.85l.4-.22c.25.42.68.62,1.1.62.85,0,1.4-.43,1.4-1.76v-.22c-.26.47-.8.76-1.38.76-.96,0-1.76-.77-1.76-1.82s.79-1.82,1.76-1.82c.59,0,1.12.29,1.38.76v-.67Zm0,1.74c0-.84-.65-1.38-1.34-1.38-.73,0-1.32.59-1.32,1.36s.59,1.38,1.32,1.38,1.34-.56,1.34-1.36Z"/><path d="m225.02,184.29h-2.98c.08.74.6,1.17,1.3,1.17.47,0,.9-.23,1.13-.61l.41.18c-.3.56-.9.88-1.55.88-.98,0-1.76-.73-1.76-1.83s.78-1.81,1.76-1.81,1.71.71,1.71,1.81c0,.07,0,.14-.01.21Zm-.46-.41c-.07-.72-.56-1.16-1.24-1.16s-1.18.42-1.28,1.16h2.51Z"/><path d="m228.86,182.36h.47v3.46h-.47v-.72c-.25.47-.79.81-1.4.81-.94,0-1.74-.79-1.74-1.82s.76-1.82,1.75-1.82c.59,0,1.13.29,1.39.76v-.67Zm0,1.74c0-.81-.65-1.38-1.35-1.38s-1.32.62-1.32,1.36.59,1.37,1.33,1.37,1.34-.58,1.34-1.36Z"/><path d="m232.63,182.37l-.09.45c-.18-.07-.34-.1-.47-.1-.82,0-1.08.93-1.08,1.79v1.31h-.48v-3.46h.48v.85c.17-.59.54-.93,1.08-.93.19,0,.42.04.55.1Z"/><path d="m238.19,185.82l-.51-1.36h-2.36l-.51,1.36h-.52l1.95-5.11h.52l1.94,5.11h-.51Zm-2.7-1.79h2.02l-1.01-2.67-1.01,2.67Z"/><path d="m243.21,182.37l-.09.45c-.18-.07-.34-.1-.47-.1-.82,0-1.08.93-1.08,1.79v1.31h-.48v-3.46h.48v.85c.17-.59.54-.93,1.08-.93.19,0,.42.04.55.1Z"/><path d="m243.45,184.09c0-1.1.82-1.82,1.81-1.82s1.82.72,1.82,1.82-.83,1.82-1.82,1.82-1.81-.73-1.81-1.82Zm3.15,0c0-.82-.62-1.36-1.34-1.36s-1.33.55-1.33,1.36.6,1.37,1.33,1.37,1.34-.56,1.34-1.37Z"/><path d="m249.44,182.36v.41h-.79v3.06h-.47v-3.06h-.63v-.41h.63v-1.3h.47v1.3h.79Z"/><path d="m252.99,182.36h.47v3.46h-.47v-.72c-.25.47-.79.81-1.4.81-.94,0-1.74-.79-1.74-1.82s.76-1.82,1.75-1.82c.59,0,1.13.29,1.39.76v-.67Zm0,1.74c0-.81-.65-1.38-1.35-1.38s-1.32.62-1.32,1.36.59,1.37,1.33,1.37,1.34-.58,1.34-1.36Z"/><path d="m256.15,182.36v.41h-.79v3.06h-.47v-3.06h-.63v-.41h.63v-1.3h.47v1.3h.79Z"/><path d="m260.02,184.29h-2.98c.08.74.6,1.17,1.3,1.17.47,0,.9-.23,1.13-.61l.41.18c-.3.56-.9.88-1.55.88-.98,0-1.76-.73-1.76-1.83s.78-1.81,1.76-1.81,1.71.71,1.71,1.81c0,.07,0,.14-.01.21Zm-.46-.41c-.07-.72-.56-1.16-1.24-1.16s-1.18.42-1.28,1.16h2.51Z"/><path d="m260.68,184.9h.44c.05.29.32.59.82.59s.8-.26.8-.61c0-.28-.19-.47-.55-.56l-.5-.12c-.49-.12-.88-.37-.88-.95s.48-.99,1.14-.99c.58,0,1.11.32,1.13.94h-.46c-.02-.31-.33-.52-.67-.52-.4,0-.67.24-.67.57s.28.47.53.53l.51.13c.67.16.88.57.88.97,0,.62-.56,1.02-1.28,1.02-.6,0-1.2-.35-1.26-1.01Z"/><path d="m265.84,184.09c0-1.1.85-1.82,1.84-1.82.49,0,.93.19,1.24.47l-.29.33c-.24-.21-.57-.35-.93-.35-.76,0-1.38.55-1.38,1.36s.62,1.37,1.38,1.37c.36,0,.69-.13.93-.35l.3.33c-.31.3-.76.47-1.25.47-.99,0-1.84-.73-1.84-1.82Z"/><path d="m269.79,185.82v-5.35h.47v5.35h-.47Z"/><path d="m271.21,184.09c0-1.1.82-1.82,1.81-1.82s1.82.72,1.82,1.82-.83,1.82-1.82,1.82-1.81-.73-1.81-1.82Zm3.15,0c0-.82-.62-1.36-1.34-1.36s-1.33.55-1.33,1.36.6,1.37,1.33,1.37,1.34-.56,1.34-1.37Z"/><path d="m275.53,184.09c0-1.1.85-1.82,1.84-1.82.49,0,.93.19,1.24.47l-.29.33c-.24-.21-.57-.35-.93-.35-.76,0-1.38.55-1.38,1.36s.62,1.37,1.38,1.37c.36,0,.69-.13.93-.35l.3.33c-.31.3-.76.47-1.25.47-.99,0-1.84-.73-1.84-1.82Z"/><path d="m282.35,185.82h-.65l-1.75-1.78v1.78h-.47v-5.35h.47v3.21l1.3-1.33h.66l-1.48,1.51,1.92,1.96Z"/><path d="m287.48,182.36h.5l-1.29,3.46h-.42l-1.08-2.83-1.03,2.83h-.42l-1.33-3.46h.51l1.02,2.75,1.01-2.75h.49l1.02,2.74,1.01-2.74Z"/><path d="m288.6,181.08c0-.2.17-.34.36-.34.21,0,.37.14.37.34s-.16.33-.37.33c-.19,0-.36-.14-.36-.33Zm.13,4.74v-3.46h.47v3.46h-.47Z"/><path d="m290.11,184.9h.44c.05.29.32.59.82.59s.8-.26.8-.61c0-.28-.19-.47-.55-.56l-.5-.12c-.49-.12-.88-.37-.88-.95s.48-.99,1.14-.99c.58,0,1.11.32,1.13.94h-.46c-.02-.31-.33-.52-.67-.52-.4,0-.67.24-.67.57s.28.47.53.53l.51.13c.67.16.88.57.88.97,0,.62-.56,1.02-1.28,1.02-.6,0-1.2-.35-1.26-1.01Z"/><path d="m296.79,184.29h-2.98c.08.74.6,1.17,1.3,1.17.47,0,.9-.23,1.13-.61l.41.18c-.3.56-.9.88-1.55.88-.98,0-1.76-.73-1.76-1.83s.78-1.81,1.76-1.81,1.71.71,1.71,1.81c0,.07,0,.14-.01.21Zm-.46-.41c-.07-.72-.56-1.16-1.24-1.16s-1.18.42-1.28,1.16h2.51Z"/><path d="m302.57,182.36h.47v3.46h-.47v-.72c-.25.47-.79.81-1.4.81-.94,0-1.74-.79-1.74-1.82s.76-1.82,1.75-1.82c.59,0,1.13.29,1.39.76v-.67Zm0,1.74c0-.81-.65-1.38-1.35-1.38s-1.32.62-1.32,1.36.59,1.37,1.33,1.37,1.34-.58,1.34-1.36Z"/><path d="m305.73,182.36v.41h-.79v3.06h-.47v-3.06h-.63v-.41h.63v-1.3h.47v1.3h.79Z"/><path d="m308.09,180.94h3.2v.05l-2.65,4.83h-.56l2.43-4.43h-2.42v-.45Z"/><path d="m314.07,183.83l1.41,1.99h-.59l-1.4-2h-.85v2h-.49v-5.11h1.9c1.07,0,1.48.77,1.48,1.56s-.43,1.56-1.43,1.56h-.01Zm-1.44-2.66v2.2h1.29c.8,0,1.1-.49,1.1-1.1s-.33-1.1-.98-1.1h-1.42Z"/><path d="m318.7,180.71c1.05,0,1.46.77,1.46,1.56s-.42,1.56-1.48,1.56h-1.5v1.99h-.49v-5.11h2.01Zm-.04,2.65c.73,0,1.02-.54,1.02-1.1s-.27-1.1-.98-1.1h-1.51v2.2h1.48Z"/><path d="m326.95,185.82h-.48l-.53-4.23-1.82,3.71h-.45l-1.83-3.72-.53,4.25h-.47l.63-5.11h.46l1.97,4.06,1.97-4.06h.45l.64,5.11Z"/><path d="m327.41,186.97c.41-.57.64-1.21.57-2.06h.51c.06.85-.24,1.65-.76,2.17l-.33-.11Z"/><path d="m336.19,182.36h.5l-1.29,3.46h-.42l-1.08-2.83-1.03,2.83h-.42l-1.33-3.46h.51l1.02,2.75,1.01-2.75h.49l1.02,2.74,1.01-2.74Z"/><path d="m340.52,183.8v2.02h-.47v-1.99c0-.67-.42-1.09-.98-1.09s-1.14.33-1.16,1.16v1.92h-.47v-5.35h.47v2.51c.21-.5.77-.71,1.2-.71.84,0,1.41.58,1.41,1.54Z"/><path d="m344.55,182.36h.47v3.46h-.47v-.72c-.25.47-.79.81-1.4.81-.94,0-1.74-.79-1.74-1.82s.76-1.82,1.75-1.82c.59,0,1.13.29,1.39.76v-.67Zm0,1.74c0-.81-.65-1.38-1.35-1.38s-1.32.62-1.32,1.36.59,1.37,1.33,1.37,1.34-.58,1.34-1.36Z"/><path d="m347.71,182.36v.41h-.79v3.06h-.47v-3.06h-.63v-.41h.63v-1.3h.47v1.3h.79Z"/><path d="m214.05,192.68h.47v5.35h-.47v-.67c-.26.47-.8.76-1.38.76-.96,0-1.76-.77-1.76-1.82s.79-1.82,1.76-1.82c.59,0,1.12.28,1.38.76v-2.55Zm0,3.63c0-.84-.65-1.38-1.34-1.38-.73,0-1.32.59-1.32,1.36s.59,1.38,1.32,1.38,1.34-.56,1.34-1.36Z"/><path d="m215.58,193.28c0-.2.17-.34.36-.34.21,0,.37.14.37.34s-.16.33-.37.33c-.19,0-.36-.14-.36-.33Zm.13,4.74v-3.46h.47v3.46h-.47Z"/><path d="m219.48,194.58l-.09.45c-.18-.07-.34-.1-.47-.1-.82,0-1.08.93-1.08,1.79v1.31h-.48v-3.46h.48v.85c.17-.59.54-.93,1.08-.93.19,0,.42.04.55.1Z"/><path d="m223.18,196.49h-2.98c.08.74.6,1.17,1.3,1.17.47,0,.9-.23,1.13-.61l.41.18c-.3.56-.9.88-1.55.88-.98,0-1.76-.73-1.76-1.83s.78-1.81,1.76-1.81,1.71.71,1.71,1.81c0,.07,0,.14-.01.21Zm-.46-.41c-.07-.72-.56-1.16-1.24-1.16s-1.18.42-1.28,1.16h2.51Z"/><path d="m223.87,196.29c0-1.1.85-1.82,1.84-1.82.49,0,.93.19,1.24.47l-.29.33c-.24-.21-.57-.35-.93-.35-.76,0-1.38.55-1.38,1.36s.62,1.37,1.38,1.37c.36,0,.69-.13.93-.35l.3.33c-.31.3-.76.47-1.25.47-.99,0-1.84-.73-1.84-1.82Z"/><path d="m229.31,194.56v.41h-.79v3.06h-.47v-3.06h-.63v-.41h.63v-1.3h.47v1.3h.79Z"/><path d="m229.92,193.28c0-.2.17-.34.36-.34.21,0,.37.14.37.34s-.16.33-.37.33c-.19,0-.36-.14-.36-.33Zm.13,4.74v-3.46h.47v3.46h-.47Z"/><path d="m231.47,196.29c0-1.1.82-1.82,1.81-1.82s1.82.72,1.82,1.82-.83,1.82-1.82,1.82-1.81-.73-1.81-1.82Zm3.15,0c0-.82-.62-1.36-1.34-1.36s-1.33.55-1.33,1.36.6,1.37,1.33,1.37,1.34-.56,1.34-1.37Z"/><path d="m239.12,196.01v2.02h-.47v-1.99c0-.67-.42-1.09-.98-1.09s-1.14.33-1.16,1.16v1.92h-.47v-3.46h.47v.62c.21-.5.77-.71,1.2-.71.84,0,1.41.58,1.41,1.54Z"/><path d="m245.09,194.56h.47v3.46h-.47v-.72c-.25.47-.79.81-1.4.81-.94,0-1.74-.79-1.74-1.82s.76-1.82,1.75-1.82c.59,0,1.13.29,1.39.76v-.68Zm0,1.74c0-.81-.65-1.38-1.35-1.38s-1.32.62-1.32,1.36.59,1.37,1.33,1.37,1.34-.58,1.34-1.36Z"/><path d="m249.83,196.01v2.02h-.47v-1.99c0-.67-.42-1.09-.98-1.09s-1.14.33-1.16,1.16v1.92h-.47v-3.46h.47v.62c.21-.5.77-.71,1.2-.71.84,0,1.41.58,1.41,1.54Z"/><path d="m253.86,192.68h.47v5.35h-.47v-.67c-.26.47-.8.76-1.38.76-.96,0-1.76-.77-1.76-1.82s.79-1.82,1.76-1.82c.59,0,1.12.28,1.38.76v-2.55Zm0,3.63c0-.84-.65-1.38-1.34-1.38-.73,0-1.32.59-1.32,1.36s.59,1.38,1.32,1.38,1.34-.56,1.34-1.36Z"/><path d="m257.18,197.1h.44c.05.29.32.59.82.59s.8-.26.8-.61c0-.28-.19-.47-.55-.56l-.5-.12c-.49-.12-.88-.37-.88-.95s.48-.99,1.14-.99c.58,0,1.11.32,1.13.94h-.46c-.02-.31-.33-.52-.67-.52-.4,0-.67.24-.67.57s.28.47.53.53l.51.13c.67.16.88.57.88.97,0,.62-.56,1.02-1.28,1.02-.6,0-1.2-.35-1.26-1.01Z"/><path d="m264.25,196.3c0,1.05-.79,1.82-1.76,1.82-.59,0-1.12-.29-1.38-.76v2.36h-.47v-5.15h.47v.68c.25-.47.8-.77,1.38-.77.97,0,1.76.77,1.76,1.82Zm-.47,0c0-.77-.59-1.38-1.33-1.38s-1.34.56-1.34,1.36.65,1.38,1.34,1.38c.73,0,1.33-.59,1.33-1.36Z"/><path d="m268.42,196.49h-2.98c.08.74.6,1.17,1.3,1.17.47,0,.9-.23,1.13-.61l.41.18c-.3.56-.9.88-1.55.88-.98,0-1.76-.73-1.76-1.83s.78-1.81,1.76-1.81,1.71.71,1.71,1.81c0,.07,0,.14-.01.21Zm-.46-.41c-.07-.72-.56-1.16-1.24-1.16s-1.18.42-1.28,1.16h2.51Z"/><path d="m272.58,196.49h-2.98c.08.74.6,1.17,1.3,1.17.47,0,.9-.23,1.13-.61l.41.18c-.3.56-.9.88-1.55.88-.98,0-1.76-.73-1.76-1.83s.78-1.81,1.76-1.81,1.71.71,1.71,1.81c0,.07,0,.14-.01.21Zm-.46-.41c-.07-.72-.56-1.16-1.24-1.16s-1.18.42-1.28,1.16h2.51Z"/><path d="m276.42,192.68h.47v5.35h-.47v-.67c-.26.47-.8.76-1.38.76-.96,0-1.76-.77-1.76-1.82s.79-1.82,1.76-1.82c.59,0,1.12.28,1.38.76v-2.55Zm0,3.63c0-.84-.65-1.38-1.34-1.38-.73,0-1.32.59-1.32,1.36s.59,1.38,1.32,1.38,1.34-.56,1.34-1.36Z"/><path d="m282.92,192.68h.47v5.35h-.47v-.67c-.26.47-.8.76-1.38.76-.96,0-1.76-.77-1.76-1.82s.79-1.82,1.76-1.82c.59,0,1.12.28,1.38.76v-2.55Zm0,3.63c0-.84-.65-1.38-1.34-1.38-.73,0-1.32.59-1.32,1.36s.59,1.38,1.32,1.38,1.34-.56,1.34-1.36Z"/><path d="m284.34,196.29c0-1.1.82-1.82,1.81-1.82s1.82.72,1.82,1.82-.83,1.82-1.82,1.82-1.81-.73-1.81-1.82Zm3.15,0c0-.82-.62-1.36-1.34-1.36s-1.33.55-1.33,1.36.6,1.37,1.33,1.37,1.34-.56,1.34-1.37Z"/><path d="m292.13,196.49h-2.98c.08.74.6,1.17,1.3,1.17.47,0,.9-.23,1.13-.61l.41.18c-.3.56-.9.88-1.55.88-.98,0-1.76-.73-1.76-1.83s.78-1.81,1.76-1.81,1.71.71,1.71,1.81c0,.07,0,.14-.01.21Zm-.46-.41c-.07-.72-.56-1.16-1.24-1.16s-1.18.42-1.28,1.16h2.51Z"/><path d="m292.78,197.1h.44c.05.29.32.59.82.59s.8-.26.8-.61c0-.28-.19-.47-.55-.56l-.5-.12c-.49-.12-.88-.37-.88-.95s.48-.99,1.14-.99c.58,0,1.11.32,1.13.94h-.46c-.02-.31-.33-.52-.67-.52-.4,0-.67.24-.67.57s.28.47.53.53l.51.13c.67.16.88.57.88.97,0,.62-.56,1.02-1.28,1.02-.6,0-1.2-.35-1.26-1.01Z"/><path d="m301.08,194.56h.47v2.99c0,1.68-.75,2.25-1.88,2.25-.59,0-1.16-.29-1.5-.85l.4-.22c.25.42.68.62,1.1.62.85,0,1.4-.43,1.4-1.76v-.22c-.26.47-.8.76-1.38.76-.96,0-1.76-.77-1.76-1.82s.79-1.82,1.76-1.82c.59,0,1.12.29,1.38.76v-.67Zm0,1.74c0-.84-.65-1.38-1.34-1.38-.73,0-1.32.59-1.32,1.36s.59,1.38,1.32,1.38,1.34-.56,1.34-1.36Z"/><path d="m305.96,196.49h-2.98c.08.74.6,1.17,1.3,1.17.47,0,.9-.23,1.13-.61l.41.18c-.3.56-.9.88-1.55.88-.98,0-1.76-.73-1.76-1.83s.78-1.81,1.76-1.81,1.71.71,1.71,1.81c0,.07,0,.14-.01.21Zm-.46-.41c-.07-.72-.56-1.16-1.24-1.16s-1.18.42-1.28,1.16h2.51Z"/><path d="m309.8,194.56h.47v3.46h-.47v-.72c-.25.47-.79.81-1.4.81-.94,0-1.74-.79-1.74-1.82s.76-1.82,1.75-1.82c.59,0,1.13.29,1.39.76v-.68Zm0,1.74c0-.81-.65-1.38-1.35-1.38s-1.32.62-1.32,1.36.59,1.37,1.33,1.37,1.34-.58,1.34-1.36Z"/><path d="m313.57,194.58l-.09.45c-.18-.07-.34-.1-.47-.1-.82,0-1.08.93-1.08,1.79v1.31h-.48v-3.46h.48v.85c.17-.59.54-.93,1.08-.93.19,0,.42.04.55.1Z"/><path d="m315.75,195.48c0-1.45,1.13-2.65,2.57-2.65.72,0,1.36.3,1.81.78l-.35.3c-.36-.38-.89-.62-1.46-.62-1.16,0-2.08,1.01-2.08,2.2s.91,2.17,2.08,2.17c.57,0,1.09-.24,1.46-.62l.35.31c-.44.47-1.09.77-1.81.77-1.43,0-2.57-1.19-2.57-2.63Z"/><path d="m325.03,194.58l-.09.45c-.18-.07-.34-.1-.47-.1-.82,0-1.08.93-1.08,1.79v1.31h-.48v-3.46h.48v.85c.17-.59.54-.93,1.08-.93.19,0,.42.04.55.1Z"/><path d="m325.27,196.29c0-1.1.82-1.82,1.81-1.82s1.82.72,1.82,1.82-.83,1.82-1.82,1.82-1.81-.73-1.81-1.82Zm3.15,0c0-.82-.62-1.36-1.34-1.36s-1.33.55-1.33,1.36.6,1.37,1.33,1.37,1.34-.56,1.34-1.37Z"/><path d="m331.26,194.56v.41h-.79v3.06h-.47v-3.06h-.63v-.41h.63v-1.3h.47v1.3h.79Z"/><path d="m334.81,194.56h.47v3.46h-.47v-.72c-.25.47-.79.81-1.4.81-.94,0-1.74-.79-1.74-1.82s.76-1.82,1.75-1.82c.59,0,1.13.29,1.39.76v-.68Zm0,1.74c0-.81-.65-1.38-1.35-1.38s-1.32.62-1.32,1.36.59,1.37,1.33,1.37,1.34-.58,1.34-1.36Z"/><path d="m337.97,194.56v.41h-.79v3.06h-.47v-3.06h-.63v-.41h.63v-1.3h.47v1.3h.79Z"/><path d="m341.84,196.49h-2.98c.08.74.6,1.17,1.3,1.17.47,0,.9-.23,1.13-.61l.41.18c-.3.56-.9.88-1.55.88-.98,0-1.76-.73-1.76-1.83s.78-1.81,1.76-1.81,1.71.71,1.71,1.81c0,.07,0,.14-.01.21Zm-.46-.41c-.07-.72-.56-1.16-1.24-1.16s-1.18.42-1.28,1.16h2.51Z"/><path d="m343.25,196.68v-.36c-.02-.62.27-.87.67-1.02l.3-.1c.39-.13.71-.48.71-.96,0-.6-.44-.96-.98-.96-.5,0-.96.35-1,.96h-.46c.03-.87.7-1.4,1.46-1.4s1.45.55,1.45,1.41c0,.7-.48,1.23-1.05,1.4-.37.11-.64.23-.64.68v.36h-.47Zm-.15,1.05c0-.21.17-.36.38-.36s.37.15.37.36-.16.35-.37.35-.38-.15-.38-.35Z"/></g></g><g id="ab"><g><path d="m424.74,193.43l-.51-1.36h-2.36l-.51,1.36h-.52l1.95-5.11h.52l1.94,5.11h-.51Zm-2.7-1.79h2.02l-1.01-2.67-1.01,2.67Z"/><path d="m428.98,191.41v2.02h-.47v-1.99c0-.67-.42-1.09-.98-1.09s-1.14.33-1.16,1.16v1.92h-.47v-3.46h.47v.62c.21-.5.77-.71,1.2-.71.84,0,1.41.58,1.41,1.54Z"/><path d="m431.56,189.97v.41h-.79v3.06h-.47v-3.06h-.63v-.41h.63v-1.3h.47v1.3h.79Z"/><path d="m432.16,188.69c0-.2.17-.34.36-.34.21,0,.37.14.37.34s-.16.33-.37.33c-.19,0-.36-.14-.36-.33Zm.13,4.74v-3.46h.47v3.46h-.47Z"/><path d="m433.83,191.95v-.46h2.5v.46h-2.5Z"/><path d="m437.15,191.69c0-1.1.85-1.82,1.84-1.82.49,0,.93.19,1.24.47l-.29.33c-.24-.21-.57-.35-.93-.35-.76,0-1.38.55-1.38,1.36s.62,1.37,1.38,1.37c.36,0,.69-.13.93-.35l.3.33c-.31.3-.76.47-1.25.47-.99,0-1.84-.73-1.84-1.82Z"/><path d="m441.1,193.43v-5.35h.47v5.35h-.47Z"/><path d="m442.52,191.69c0-1.1.82-1.82,1.81-1.82s1.82.72,1.82,1.82-.83,1.82-1.82,1.82-1.81-.73-1.81-1.82Zm3.15,0c0-.82-.62-1.36-1.34-1.36s-1.33.55-1.33,1.36.6,1.37,1.33,1.37,1.34-.56,1.34-1.37Z"/><path d="m446.84,191.69c0-1.1.85-1.82,1.84-1.82.49,0,.93.19,1.24.47l-.29.33c-.24-.21-.57-.35-.93-.35-.76,0-1.38.55-1.38,1.36s.62,1.37,1.38,1.37c.36,0,.69-.13.93-.35l.3.33c-.31.3-.76.47-1.25.47-.99,0-1.84-.73-1.84-1.82Z"/><path d="m453.66,193.43h-.65l-1.75-1.78v1.78h-.47v-5.35h.47v3.21l1.3-1.33h.66l-1.48,1.51,1.92,1.96Z"/><path d="m458.79,189.97h.5l-1.29,3.46h-.42l-1.08-2.83-1.03,2.83h-.42l-1.33-3.46h.51l1.02,2.75,1.01-2.75h.49l1.02,2.74,1.01-2.74Z"/><path d="m459.92,188.69c0-.2.17-.34.36-.34.21,0,.37.14.37.34s-.16.33-.37.33c-.19,0-.36-.14-.36-.33Zm.13,4.74v-3.46h.47v3.46h-.47Z"/><path d="m461.42,192.51h.44c.05.29.32.59.82.59s.8-.26.8-.61c0-.28-.19-.47-.55-.56l-.5-.12c-.49-.12-.88-.37-.88-.95s.48-.99,1.14-.99c.58,0,1.11.32,1.13.94h-.46c-.02-.31-.33-.52-.67-.52-.4,0-.67.24-.67.57s.28.47.53.53l.51.13c.67.16.88.57.88.97,0,.62-.56,1.02-1.28,1.02-.6,0-1.2-.35-1.26-1.01Z"/><path d="m468.1,191.9h-2.98c.08.74.6,1.17,1.3,1.17.47,0,.9-.23,1.13-.61l.41.18c-.3.56-.9.88-1.55.88-.98,0-1.76-.73-1.76-1.83s.78-1.81,1.76-1.81,1.71.71,1.71,1.81c0,.07,0,.14-.01.21Zm-.46-.41c-.07-.72-.56-1.16-1.24-1.16s-1.18.42-1.28,1.16h2.51Z"/><path d="m473.88,189.97h.47v3.46h-.47v-.72c-.25.47-.79.81-1.4.81-.94,0-1.74-.79-1.74-1.82s.76-1.82,1.75-1.82c.59,0,1.13.29,1.39.76v-.67Zm0,1.74c0-.81-.65-1.38-1.35-1.38s-1.32.62-1.32,1.36.59,1.37,1.33,1.37,1.34-.58,1.34-1.36Z"/><path d="m477.04,189.97v.41h-.79v3.06h-.47v-3.06h-.63v-.41h.63v-1.3h.47v1.3h.79Z"/><path d="m482.75,191.9c0,.97-.71,1.62-1.68,1.62-.78,0-1.38-.42-1.7-1.02l.4-.22c.23.46.68.79,1.28.79.7,0,1.22-.47,1.22-1.16s-.5-1.1-1.16-1.1c-.41,0-.88.17-1.29.42l-.27-.24.42-2.42h2.45v.45h-2.05l-.32,1.7c.35-.2.76-.33,1.15-.33.9,0,1.55.6,1.55,1.52Z"/><path d="m485.8,191.44l1.41,1.99h-.59l-1.4-2h-.85v2h-.49v-5.11h1.9c1.07,0,1.48.77,1.48,1.56s-.43,1.56-1.43,1.56h-.01Zm-1.44-2.66v2.2h1.29c.8,0,1.1-.49,1.1-1.1s-.33-1.1-.98-1.1h-1.42Z"/><path d="m490.43,188.32c1.05,0,1.46.77,1.46,1.56s-.42,1.56-1.48,1.56h-1.5v1.99h-.49v-5.11h2.01Zm-.04,2.65c.73,0,1.02-.54,1.02-1.1s-.27-1.1-.98-1.1h-1.51v2.2h1.48Z"/><path d="m498.68,193.43h-.48l-.53-4.23-1.82,3.71h-.45l-1.83-3.72-.53,4.25h-.47l.63-5.11h.46l1.97,4.06,1.97-4.06h.45l.64,5.11Z"/></g><g><path d="m424.74,212.17l-.51-1.36h-2.36l-.51,1.36h-.52l1.95-5.11h.52l1.94,5.11h-.51Zm-2.7-1.79h2.02l-1.01-2.67-1.01,2.67Z"/><path d="m428.98,210.15v2.02h-.47v-1.99c0-.67-.42-1.09-.98-1.09s-1.14.33-1.16,1.16v1.92h-.47v-3.46h.47v.62c.21-.5.77-.71,1.2-.71.84,0,1.41.58,1.41,1.54Z"/><path d="m431.56,208.7v.41h-.79v3.06h-.47v-3.06h-.63v-.41h.63v-1.3h.47v1.3h.79Z"/><path d="m432.16,207.43c0-.2.17-.34.36-.34.21,0,.37.14.37.34s-.16.33-.37.33c-.19,0-.36-.14-.36-.33Zm.13,4.74v-3.46h.47v3.46h-.47Z"/><path d="m433.83,210.69v-.46h2.5v.46h-2.5Z"/><path d="m437.15,210.43c0-1.1.85-1.82,1.84-1.82.49,0,.93.19,1.24.47l-.29.33c-.24-.21-.57-.35-.93-.35-.76,0-1.38.55-1.38,1.36s.62,1.37,1.38,1.37c.36,0,.69-.13.93-.35l.3.33c-.31.3-.76.47-1.25.47-.99,0-1.84-.73-1.84-1.82Z"/><path d="m441.1,212.17v-5.35h.47v5.35h-.47Z"/><path d="m442.52,210.43c0-1.1.82-1.82,1.81-1.82s1.82.72,1.82,1.82-.83,1.82-1.82,1.82-1.81-.73-1.81-1.82Zm3.15,0c0-.82-.62-1.36-1.34-1.36s-1.33.55-1.33,1.36.6,1.37,1.33,1.37,1.34-.56,1.34-1.37Z"/><path d="m446.84,210.43c0-1.1.85-1.82,1.84-1.82.49,0,.93.19,1.24.47l-.29.33c-.24-.21-.57-.35-.93-.35-.76,0-1.38.55-1.38,1.36s.62,1.37,1.38,1.37c.36,0,.69-.13.93-.35l.3.33c-.31.3-.76.47-1.25.47-.99,0-1.84-.73-1.84-1.82Z"/><path d="m453.66,212.17h-.65l-1.75-1.78v1.78h-.47v-5.35h.47v3.21l1.3-1.33h.66l-1.48,1.51,1.92,1.96Z"/><path d="m458.79,208.7h.5l-1.29,3.46h-.42l-1.08-2.83-1.03,2.83h-.42l-1.33-3.46h.51l1.02,2.75,1.01-2.75h.49l1.02,2.74,1.01-2.74Z"/><path d="m459.92,207.43c0-.2.17-.34.36-.34.21,0,.37.14.37.34s-.16.33-.37.33c-.19,0-.36-.14-.36-.33Zm.13,4.74v-3.46h.47v3.46h-.47Z"/><path d="m461.42,211.25h.44c.05.29.32.59.82.59s.8-.26.8-.61c0-.28-.19-.47-.55-.56l-.5-.12c-.49-.12-.88-.37-.88-.95s.48-.99,1.14-.99c.58,0,1.11.32,1.13.94h-.46c-.02-.31-.33-.52-.67-.52-.4,0-.67.24-.67.57s.28.47.53.53l.51.13c.67.16.88.57.88.97,0,.62-.56,1.02-1.28,1.02-.6,0-1.2-.35-1.26-1.01Z"/><path d="m468.1,210.63h-2.98c.08.74.6,1.17,1.3,1.17.47,0,.9-.23,1.13-.61l.41.18c-.3.56-.9.88-1.55.88-.98,0-1.76-.73-1.76-1.83s.78-1.81,1.76-1.81,1.71.71,1.71,1.81c0,.07,0,.14-.01.21Zm-.46-.41c-.07-.72-.56-1.16-1.24-1.16s-1.18.42-1.28,1.16h2.51Z"/><path d="m473.88,208.7h.47v3.46h-.47v-.72c-.25.47-.79.81-1.4.81-.94,0-1.74-.79-1.74-1.82s.76-1.82,1.75-1.82c.59,0,1.13.29,1.39.76v-.67Zm0,1.74c0-.81-.65-1.38-1.35-1.38s-1.32.62-1.32,1.36.59,1.37,1.33,1.37,1.34-.58,1.34-1.36Z"/><path d="m477.04,208.7v.41h-.79v3.06h-.47v-3.06h-.63v-.41h.63v-1.3h.47v1.3h.79Z"/><path d="m482.91,210.65c0,.77-.56,1.61-1.68,1.61s-1.73-.76-1.73-2.17c0-1.05.26-2.85,1.9-2.85.56,0,1.12.2,1.44.93l-.43.18c-.22-.49-.6-.65-1.02-.65-.98,0-1.4,1.08-1.38,2.05.24-.39.74-.66,1.27-.66.97,0,1.63.73,1.63,1.57Zm-.49,0c0-.62-.47-1.1-1.15-1.11-.57,0-1.23.33-1.25,1.02,0,.8.55,1.25,1.19,1.25.73,0,1.22-.53,1.22-1.16Z"/><path d="m486.01,210.17l1.41,1.99h-.59l-1.4-2h-.85v2h-.49v-5.11h1.9c1.07,0,1.48.77,1.48,1.56s-.43,1.56-1.43,1.56h-.01Zm-1.44-2.66v2.2h1.29c.8,0,1.1-.49,1.1-1.1s-.33-1.1-.98-1.1h-1.42Z"/><path d="m490.64,207.06c1.05,0,1.46.77,1.46,1.56s-.42,1.56-1.48,1.56h-1.5v1.99h-.49v-5.11h2.01Zm-.04,2.65c.73,0,1.02-.54,1.02-1.1s-.27-1.1-.98-1.1h-1.51v2.2h1.48Z"/><path d="m498.89,212.17h-.48l-.53-4.23-1.82,3.71h-.45l-1.83-3.72-.53,4.25h-.47l.63-5.11h.46l1.97,4.06,1.97-4.06h.45l.64,5.11Z"/></g><g><path d="m421.18,229.01c0-1.45,1.13-2.65,2.57-2.65.72,0,1.36.3,1.81.78l-.35.3c-.36-.38-.89-.62-1.46-.62-1.16,0-2.08,1.01-2.08,2.2s.91,2.17,2.08,2.17c.57,0,1.09-.24,1.46-.62l.35.31c-.44.47-1.09.77-1.81.77-1.43,0-2.57-1.19-2.57-2.63Z"/><path d="m426.4,231.55v-5.35h.47v5.35h-.47Z"/><path d="m427.82,229.82c0-1.1.82-1.82,1.81-1.82s1.82.72,1.82,1.82-.83,1.82-1.82,1.82-1.81-.73-1.81-1.82Zm3.15,0c0-.82-.62-1.36-1.34-1.36s-1.33.55-1.33,1.36.6,1.37,1.33,1.37,1.34-.56,1.34-1.37Z"/><path d="m432.14,229.82c0-1.1.85-1.82,1.84-1.82.49,0,.93.19,1.24.47l-.29.33c-.24-.21-.57-.35-.93-.35-.76,0-1.38.55-1.38,1.36s.62,1.37,1.38,1.37c.36,0,.69-.13.93-.35l.3.33c-.31.3-.76.47-1.25.47-.99,0-1.84-.73-1.84-1.82Z"/><path d="m438.96,231.55h-.65l-1.75-1.78v1.78h-.47v-5.35h.47v3.21l1.3-1.33h.66l-1.48,1.51,1.92,1.96Z"/><path d="m444.1,228.09h.5l-1.29,3.46h-.42l-1.08-2.83-1.03,2.83h-.42l-1.33-3.46h.51l1.02,2.75,1.01-2.75h.49l1.02,2.74,1.01-2.74Z"/><path d="m445.22,226.81c0-.2.17-.34.36-.34.21,0,.37.14.37.34s-.16.33-.37.33c-.19,0-.36-.14-.36-.33Zm.13,4.74v-3.46h.47v3.46h-.47Z"/><path d="m446.72,230.63h.44c.05.29.32.59.82.59s.8-.26.8-.61c0-.28-.19-.47-.55-.56l-.5-.12c-.49-.12-.88-.37-.88-.95s.48-.99,1.14-.99c.58,0,1.11.32,1.13.94h-.46c-.02-.31-.33-.52-.67-.52-.4,0-.67.24-.67.57s.28.47.53.53l.51.13c.67.16.88.57.88.97,0,.62-.56,1.02-1.28,1.02-.6,0-1.2-.35-1.26-1.01Z"/><path d="m453.41,230.02h-2.98c.08.74.6,1.17,1.3,1.17.47,0,.9-.23,1.13-.61l.41.18c-.3.56-.9.88-1.55.88-.98,0-1.76-.73-1.76-1.83s.78-1.81,1.76-1.81,1.71.71,1.71,1.81c0,.07,0,.14-.01.21Zm-.46-.41c-.07-.72-.56-1.16-1.24-1.16s-1.18.42-1.28,1.16h2.51Z"/><path d="m459.18,228.09h.47v3.46h-.47v-.72c-.25.47-.79.81-1.4.81-.94,0-1.74-.79-1.74-1.82s.76-1.82,1.75-1.82c.59,0,1.13.29,1.39.76v-.67Zm0,1.74c0-.81-.65-1.38-1.35-1.38s-1.32.62-1.32,1.36.59,1.37,1.33,1.37,1.34-.58,1.34-1.36Z"/><path d="m462.34,228.09v.41h-.79v3.06h-.47v-3.06h-.63v-.41h.63v-1.3h.47v1.3h.79Z"/><path d="m464.71,226.67h3.2v.05l-2.65,4.83h-.56l2.43-4.43h-2.42v-.45Z"/><path d="m470.68,229.56l1.41,1.99h-.59l-1.4-2h-.85v2h-.49v-5.11h1.9c1.07,0,1.48.77,1.48,1.56s-.43,1.56-1.43,1.56h-.01Zm-1.44-2.66v2.2h1.29c.8,0,1.1-.49,1.1-1.1s-.33-1.1-.98-1.1h-1.42Z"/><path d="m475.31,226.44c1.05,0,1.46.77,1.46,1.56s-.42,1.56-1.48,1.56h-1.5v1.99h-.49v-5.11h2.01Zm-.04,2.65c.73,0,1.02-.54,1.02-1.1s-.27-1.1-.98-1.1h-1.51v2.2h1.48Z"/><path d="m483.56,231.55h-.48l-.53-4.23-1.82,3.71h-.45l-1.83-3.72-.53,4.25h-.47l.63-5.11h.46l1.97,4.06,1.97-4.06h.45l.64,5.11Z"/></g><g><path d="m421.18,247.91c0-1.45,1.13-2.65,2.57-2.65.72,0,1.36.3,1.81.78l-.35.3c-.36-.38-.89-.62-1.46-.62-1.16,0-2.08,1.01-2.08,2.2s.91,2.17,2.08,2.17c.57,0,1.09-.24,1.46-.62l.35.31c-.44.47-1.09.77-1.81.77-1.43,0-2.57-1.19-2.57-2.63Z"/><path d="m426.4,250.45v-5.35h.47v5.35h-.47Z"/><path d="m427.82,248.71c0-1.1.82-1.82,1.81-1.82s1.82.72,1.82,1.82-.83,1.82-1.82,1.82-1.81-.73-1.81-1.82Zm3.15,0c0-.82-.62-1.36-1.34-1.36s-1.33.55-1.33,1.36.6,1.37,1.33,1.37,1.34-.56,1.34-1.37Z"/><path d="m432.14,248.71c0-1.1.85-1.82,1.84-1.82.49,0,.93.19,1.24.47l-.29.33c-.24-.21-.57-.35-.93-.35-.76,0-1.38.55-1.38,1.36s.62,1.37,1.38,1.37c.36,0,.69-.13.93-.35l.3.33c-.31.3-.76.47-1.25.47-.99,0-1.84-.73-1.84-1.82Z"/><path d="m438.96,250.45h-.65l-1.75-1.78v1.78h-.47v-5.35h.47v3.21l1.3-1.33h.66l-1.48,1.51,1.92,1.96Z"/><path d="m444.1,246.99h.5l-1.29,3.46h-.42l-1.08-2.83-1.03,2.83h-.42l-1.33-3.46h.51l1.02,2.75,1.01-2.75h.49l1.02,2.74,1.01-2.74Z"/><path d="m445.22,245.71c0-.2.17-.34.36-.34.21,0,.37.14.37.34s-.16.33-.37.33c-.19,0-.36-.14-.36-.33Zm.13,4.74v-3.46h.47v3.46h-.47Z"/><path d="m446.72,249.53h.44c.05.29.32.59.82.59s.8-.26.8-.61c0-.28-.19-.47-.55-.56l-.5-.12c-.49-.12-.88-.37-.88-.95s.48-.99,1.14-.99c.58,0,1.11.32,1.13.94h-.46c-.02-.31-.33-.52-.67-.52-.4,0-.67.24-.67.57s.28.47.53.53l.51.13c.67.16.88.57.88.97,0,.62-.56,1.02-1.28,1.02-.6,0-1.2-.35-1.26-1.01Z"/><path d="m453.41,248.92h-2.98c.08.74.6,1.17,1.3,1.17.47,0,.9-.23,1.13-.61l.41.18c-.3.56-.9.88-1.55.88-.98,0-1.76-.73-1.76-1.83s.78-1.81,1.76-1.81,1.71.71,1.71,1.81c0,.07,0,.14-.01.21Zm-.46-.41c-.07-.72-.56-1.16-1.24-1.16s-1.18.42-1.28,1.16h2.51Z"/><path d="m459.18,246.99h.47v3.46h-.47v-.72c-.25.47-.79.81-1.4.81-.94,0-1.74-.79-1.74-1.82s.76-1.82,1.75-1.82c.59,0,1.13.29,1.39.76v-.68Zm0,1.74c0-.81-.65-1.38-1.35-1.38s-1.32.62-1.32,1.36.59,1.37,1.33,1.37,1.34-.58,1.34-1.36Z"/><path d="m462.34,246.99v.41h-.79v3.06h-.47v-3.06h-.63v-.41h.63v-1.3h.47v1.3h.79Z"/><path d="m468.27,249c0,.88-.75,1.54-1.77,1.54s-1.76-.66-1.76-1.53c0-.64.39-1.18,1-1.39-.34-.19-.56-.51-.56-.94,0-.66.54-1.16,1.33-1.16s1.33.5,1.33,1.16c0,.43-.22.76-.57.94.6.22,1,.76,1,1.39Zm-.5-.02c0-.63-.56-1.12-1.27-1.12-.72.01-1.27.49-1.27,1.11s.55,1.11,1.27,1.11,1.27-.5,1.27-1.1Zm-2.11-2.27c0,.42.35.74.84.75.48,0,.85-.33.85-.75s-.37-.76-.85-.76-.84.33-.84.76Z"/><path d="m471.33,248.46l1.41,1.99h-.59l-1.4-2h-.85v2h-.49v-5.11h1.9c1.07,0,1.48.77,1.48,1.56s-.43,1.56-1.43,1.56h-.01Zm-1.44-2.66v2.2h1.29c.8,0,1.1-.49,1.1-1.1s-.33-1.1-.98-1.1h-1.42Z"/><path d="m475.96,245.34c1.05,0,1.46.77,1.46,1.56s-.42,1.56-1.48,1.56h-1.5v1.99h-.49v-5.11h2.01Zm-.04,2.65c.73,0,1.02-.54,1.02-1.1s-.27-1.1-.98-1.1h-1.51v2.2h1.48Z"/><path d="m484.21,250.45h-.48l-.53-4.23-1.82,3.71h-.45l-1.83-3.72-.53,4.25h-.47l.63-5.11h.46l1.97,4.06,1.97-4.06h.45l.64,5.11Z"/></g><circle class="br" cx="411.79" cy="190.36" r="4.72"/><circle class="br" cx="411.79" cy="209.37" r="4.72"/><circle class="br" cx="411.79" cy="228.37" r="4.72"/><circle class="br" cx="411.79" cy="247.38" r="4.72"/></g><line id="ac" class="bo" x1="382.05" y1="181.22" x2="382.05" y2="287.15"/><g id="ad"><path class="bn" d="m258.08,289.22c-23.01,0-41.67-18.66-41.67-41.67"/><path class="bi" d="m360.9,250.15l-5.56-.71c-.02-.36-.05-.72-.1-1.08s-.1-.72-.17-1.07l5.21-2.05c.14-.06.22-.19.19-.32l-.83-2.7c-.04-.12-.18-.19-.33-.16l-5.46,1.23c-.29-.67-.62-1.31-.98-1.93l4.2-3.7c.12-.1.14-.26.07-.36l-1.7-2.26c-.08-.1-.24-.12-.37-.04l-4.71,3.02c-.5-.52-1.03-1.01-1.59-1.47l2.68-4.92c.07-.14.05-.29-.06-.36l-2.37-1.54c-.11-.07-.26-.03-.36.09l-3.4,4.45c-.65-.32-1.31-.6-1.99-.85l.84-5.54c.02-.15-.06-.29-.18-.32l-2.76-.63c-.13-.03-.26.06-.31.21l-1.67,5.35c-.71-.08-1.43-.12-2.16-.11l-1.11-5.49c-.03-.15-.15-.26-.28-.24l-2.81.35c-.13.02-.22.15-.22.3l.26,5.6c-.71.17-1.4.38-2.07.63l-2.92-4.78c-.08-.13-.23-.19-.35-.13l-2.52,1.29c-.12.06-.16.21-.1.36l2.16,5.17c-.6.4-1.18.84-1.73,1.31l-4.38-3.49c-.12-.1-.28-.1-.37,0l-1.93,2.07c-.09.1-.08.25.03.37l3.8,4.12c-.43.58-.82,1.18-1.18,1.81l-5.31-1.78c-.15-.05-.3,0-.35.12l-1.1,2.61c-.05.12.02.27.15.34l4.97,2.57c-.2.69-.36,1.39-.48,2.11l-5.6.14c-.15,0-.28.11-.28.24l-.15,2.83c0,.13.11.24.26.26l5.56.72c.02.36.05.72.1,1.08s.1.72.17,1.07l-5.21,2.05c-.14.06-.22.19-.19.32l.83,2.71c.04.12.18.19.33.16l5.46-1.23c.29.67.62,1.31.98,1.93l-4.2,3.7c-.12.1-.14.26-.07.36l1.7,2.26c.08.1.24.12.37.04l4.71-3.02c.5.52,1.03,1.01,1.59,1.47l-2.68,4.92c-.07.14-.05.29.06.36l2.37,1.54c.11.07.26.03.36-.09l3.4-4.45c.65.32,1.31.6,1.99.85l-.84,5.54c-.02.15.06.29.18.32l2.76.63c.13.03.26-.06.31-.21l1.67-5.35c.71.08,1.43.12,2.16.11l1.11,5.49c.03.15.15.26.28.24l2.81-.35c.13-.02.22-.15.22-.3l-.26-5.6c.71-.17,1.4-.38,2.07-.63l2.92,4.78c.08.13.23.19.35.13l2.52-1.29c.12-.06.16-.21.1-.36l-2.16-5.17c.6-.4,1.18-.84,1.73-1.31l4.38,3.49c.12.1.28.1.37,0l1.93-2.07c.09-.1.08-.26-.03-.37l-3.8-4.12c.43-.58.82-1.19,1.18-1.81l5.31,1.78c.15.05.3,0,.35-.12l1.1-2.6c.05-.12-.02-.27-.15-.34l-4.97-2.57c.2-.69.36-1.39.48-2.11l5.6-.14c.15,0,.28-.11.28-.24l.15-2.83c0-.13-.11-.24-.26-.26Z"/><path class="bm" d="m316.78,259.65l-4.17.26c-.26-.86-.61-1.67-1.03-2.44l3.07-2.83c.1-.1.12-.24.05-.34l-1.67-2.13c-.08-.1-.23-.11-.34-.04l-3.48,2.3c-.65-.6-1.36-1.14-2.12-1.59l1.24-3.98c.04-.13-.01-.27-.13-.32l-2.51-1.01c-.12-.05-.25.01-.31.14l-1.86,3.74c-.85-.2-1.73-.3-2.63-.31l-.92-4.08c-.03-.14-.15-.23-.27-.21l-2.68.38c-.12.02-.21.14-.2.28l.26,4.17c-.86.26-1.67.61-2.44,1.03l-2.83-3.07c-.1-.1-.24-.12-.34-.05l-2.13,1.67c-.1.08-.11.23-.04.34l2.3,3.48c-.6.65-1.14,1.36-1.59,2.12l-3.98-1.24c-.13-.04-.27.01-.32.13l-1.01,2.51c-.05.12.01.25.14.31l3.74,1.86c-.2.85-.3,1.73-.31,2.63l-4.08.92c-.14.03-.23.15-.21.27l.38,2.68c.02.12.14.21.28.2l4.17-.26c.26.86.61,1.67,1.03,2.44l-3.07,2.83c-.1.1-.12.24-.05.34l1.67,2.13c.08.1.23.11.34.04l3.48-2.3c.65.6,1.36,1.14,2.12,1.59l-1.24,3.98c-.04.13.01.27.13.32l2.51,1.01c.12.05.25-.01.31-.14l1.86-3.74c.85.2,1.73.3,2.63.31l.92,4.08c.03.14.15.23.27.21l2.68-.38c.12-.02.21-.14.2-.28l-.26-4.17c.86-.26,1.67-.61,2.44-1.03l2.83,3.07c.1.1.24.12.34.05l2.13-1.67c.1-.08.11-.23.04-.34l-2.3-3.48c.6-.65,1.14-1.36,1.59-2.12l3.98,1.24c.13.04.27-.01.32-.13l1.01-2.51c.05-.12-.01-.25-.14-.31l-3.74-1.86c.2-.85.3-1.73.31-2.63l4.08-.92c.14-.03.23-.15.21-.27l-.38-2.68c-.02-.12-.14-.21-.28-.2Z"/><path class="bm" d="m288.4,250.59l-6.64-1.73c.02-.44.04-.87.04-1.31s-.01-.88-.04-1.31l6.64-1.73c.19-.05.32-.22.29-.4l-.67-3.8c-.03-.17-.21-.29-.41-.27l-6.83.65c-.26-.84-.55-1.67-.9-2.47l5.64-3.89c.17-.11.22-.32.13-.47l-1.93-3.34c-.09-.15-.3-.2-.48-.12l-6.19,2.94c-.53-.7-1.09-1.37-1.69-2.01l3.98-5.6c.12-.16.1-.38-.03-.49l-2.95-2.48c-.14-.11-.35-.09-.49.05l-4.82,4.89c-.73-.48-1.49-.92-2.27-1.31l1.82-6.61c.05-.19-.03-.39-.2-.45l-3.62-1.32c-.17-.06-.36.03-.44.21l-2.86,6.24c-.85-.2-1.71-.35-2.59-.45l-.55-6.84c-.02-.2-.16-.35-.34-.35h-3.86c-.18,0-.33.15-.34.35l-.55,6.84c-.88.1-1.74.26-2.59.45l-2.86-6.24c-.08-.18-.27-.28-.44-.21l-3.62,1.32c-.17.06-.25.26-.2.45l1.82,6.61c-.78.4-1.54.84-2.27,1.31l-4.82-4.89c-.14-.14-.35-.16-.49-.05l-2.95,2.48c-.14.11-.15.33-.03.49l3.98,5.6c-.6.64-1.17,1.31-1.69,2.01l-6.19-2.94c-.18-.09-.39-.03-.48.12l-1.93,3.34c-.09.15-.03.36.13.47l5.64,3.89c-.34.8-.64,1.63-.9,2.47l-6.83-.65c-.2-.02-.38.1-.41.27l-.67,3.8c-.03.17.09.35.29.4l6.64,1.73c-.02.44-.04.87-.04,1.31s.01.88.04,1.31l-6.64,1.73c-.19.05-.32.22-.29.4l.67,3.8c.03.17.21.29.41.27l6.83-.65c.26.84.55,1.67.9,2.47l-5.64,3.89c-.17.11-.22.32-.13.47l1.93,3.34c.09.15.3.21.48.12l6.19-2.94c.53.7,1.09,1.37,1.69,2.01l-3.98,5.6c-.12.16-.1.38.03.49l2.95,2.48c.14.11.35.09.49-.05l4.82-4.89c.73.48,1.49.92,2.27,1.31l-1.82,6.61c-.05.19.03.39.2.45l3.62,1.32c.17.06.36-.03.44-.21l2.86-6.24c.85.2,1.71.35,2.59.45l.55,6.84c.02.2.16.35.34.35h3.86c.18,0,.33-.15.34-.35l.55-6.84c.88-.1,1.74-.26,2.59-.45l2.86,6.24c.08.18.27.28.44.21l3.62-1.32c.17-.06.25-.26.2-.45l-1.82-6.61c.78-.4,1.54-.84,2.27-1.31l4.82,4.89c.14.14.35.16.49.05l2.95-2.48c.14-.11.15-.33.03-.49l-3.98-5.6c.6-.64,1.17-1.31,1.69-2.01l6.19,2.94c.18.09.39.03.48-.12l1.93-3.34c.09-.15.03-.36-.13-.47l-5.64-3.89c.34-.8.64-1.63.9-2.47l6.83.65c.2.02.38-.1.41-.27l.67-3.8c.03-.17-.09-.35-.29-.4Z"/><polyline class="bn" points="212.5 250.71 216.41 246.8 220.31 250.71"/><circle class="be" cx="258.08" cy="247.55" r="11.16"/><circle class="be" cx="300.7" cy="263.55" r="7.51"/><circle class="bd" cx="337.16" cy="250.59" r="9.01"/><path class="bg" d="m260.29,251.08l-.67-1.82h-3l-.67,1.82h-1.13l2.72-7.19h1.15l2.71,7.19h-1.13Zm-3.32-2.76h2.31l-1.15-3.13-1.16,3.13Z"/><path class="bg" d="m303.35,265.06c0,1.03-.76,2.04-2.14,2.04h-2.96v-7.19h2.73c1.22,0,1.98.73,1.98,1.85,0,.59-.22,1.24-.92,1.51.86.18,1.3,1.01,1.3,1.8Zm-2.39-4.17h-1.64v1.98h1.66c.59,0,.91-.42.91-1s-.31-.98-.93-.98Zm.04,5.23c.83,0,1.27-.53,1.27-1.16,0-.58-.39-1.17-1.22-1.17h-1.73v2.33h1.68Z"/><path class="bg" d="m333.69,251c0-2.04,1.62-3.74,3.65-3.74,1.14,0,2.13.5,2.77,1.29l-.79.64c-.46-.56-1.17-.93-1.96-.93-1.46,0-2.59,1.25-2.59,2.73s1.12,2.7,2.59,2.7c.79,0,1.5-.37,1.96-.93l.79.64c-.64.79-1.63,1.29-2.77,1.29-2.04,0-3.65-1.67-3.65-3.71Z"/></g><g id="ae"><path class="cc" d="m208.26,156.99c.29-.05.68-.09,1.17-.09.6,0,1.04.14,1.32.39.26.22.41.57.41.99s-.13.76-.36,1.01c-.32.34-.85.52-1.44.52-.18,0-.35,0-.49-.04v1.89h-.61v-4.66Zm.61,2.28c.13.04.3.05.5.05.74,0,1.18-.36,1.18-1.01s-.44-.92-1.11-.92c-.27,0-.47.02-.57.05v1.83Z"/><path class="cc" d="m213.66,161.66l-.05-.43h-.02c-.19.27-.55.5-1.04.5-.69,0-1.04-.48-1.04-.97,0-.82.73-1.27,2.04-1.26v-.07c0-.28-.08-.78-.77-.78-.31,0-.64.1-.88.25l-.14-.41c.28-.18.69-.3,1.11-.3,1.04,0,1.29.71,1.29,1.39v1.27c0,.29.01.58.06.81h-.56Zm-.09-1.73c-.67-.01-1.44.1-1.44.76,0,.4.27.59.58.59.44,0,.72-.28.82-.57.02-.06.04-.13.04-.2v-.59Z"/><path class="cc" d="m218.08,158.27c-.01.25-.03.52-.03.93v1.97c0,.78-.15,1.25-.48,1.55-.33.31-.81.41-1.23.41s-.85-.1-1.13-.28l.15-.47c.22.14.57.27.99.27.63,0,1.09-.33,1.09-1.18v-.38h-.01c-.19.32-.55.57-1.08.57-.84,0-1.44-.71-1.44-1.65,0-1.15.75-1.8,1.53-1.8.59,0,.91.31,1.06.59h.01l.03-.51h.54Zm-.64,1.34c0-.1,0-.2-.04-.28-.11-.36-.41-.65-.86-.65-.59,0-1.01.5-1.01,1.28,0,.67.34,1.22,1,1.22.38,0,.72-.24.85-.63.03-.1.05-.22.05-.33v-.61Z"/><path class="cc" d="m219.42,160.08c.01.83.55,1.18,1.16,1.18.44,0,.71-.08.94-.18l.1.44c-.22.1-.59.21-1.13.21-1.04,0-1.67-.69-1.67-1.71s.6-1.83,1.59-1.83c1.11,0,1.4.97,1.4,1.6,0,.13-.01.22-.02.29h-2.38Zm1.81-.44c0-.39-.16-1-.85-1-.62,0-.9.57-.95,1h1.8Z"/><path class="cc" d="m222.43,158.83c0-.26.17-.44.42-.44s.41.18.41.44c0,.25-.16.43-.42.43-.25,0-.41-.19-.41-.43Zm0,2.47c0-.26.17-.44.42-.44s.41.18.41.44c0,.25-.16.43-.42.43-.25,0-.41-.19-.41-.43Z"/><path class="cc" d="m226.65,157.68h-.01l-.79.43-.12-.47.99-.53h.52v4.55h-.6v-3.98Z"/></g><g id="af"><line class="bp" x1="509.75" y1="156.75" x2="514.25" y2="161.25"/><line class="bp" x1="509.75" y1="161.25" x2="514.25" y2="156.75"/></g></g></g></g></g><rect id="ah" class="cf" x="179.41" y="256.02" width="358.58" height="36.71"/><g id="ai"><rect id="al" class="bf" x="90.49" y="127.83" width="101.7" height="190.77" rx="9" ry="9"/><path id="ao" class="ca" d="m192.2,153.43v-18.14c0-4.12-3.34-7.46-7.46-7.46h-86.78c-4.12,0-7.46,3.34-7.46,7.46v18.14h101.7Z"/><g id="ap"><g id="aq"><rect class="bj" x="110.62" y="254.83" width="7.03" height="7.03" rx="2" ry="2"/><g><path d="m120.84,261.15l.04-.32c.08.02.23.03.28.03.52,0,.71-.36.71-.79v-3.57h.34v3.57c0,.6-.28,1.11-1.05,1.11-.09,0-.21-.02-.31-.04Z"/><path d="m125.06,257.62h.33v2.37h-.33v-.49c-.17.33-.54.55-.96.55-.65,0-1.19-.54-1.19-1.25s.52-1.25,1.2-1.25c.41,0,.77.2.95.52v-.46Zm0,1.19c0-.55-.45-.95-.92-.95s-.9.43-.9.94.41.94.91.94.92-.4.92-.93Z"/><path d="m128.31,258.62v1.38h-.33v-1.37c0-.46-.29-.75-.67-.75s-.78.22-.79.8v1.32h-.33v-2.37h.33v.43c.14-.34.53-.49.82-.49.57,0,.97.4.97,1.05Z"/><path d="m130.84,257.62h.33v2.37h-.33v-.42c-.14.34-.53.48-.82.48-.57,0-.97-.4-.96-1.05v-1.38h.33v1.38c0,.46.28.75.67.75s.78-.22.79-.8v-1.33Z"/><path d="m133.96,257.62h.33v2.37h-.33v-.49c-.17.33-.54.55-.96.55-.65,0-1.19-.54-1.19-1.25s.52-1.25,1.2-1.25c.41,0,.77.2.95.52v-.46Zm0,1.19c0-.55-.45-.95-.92-.95s-.9.43-.9.94.41.94.91.94.92-.4.92-.93Z"/><path d="m136.55,257.64l-.06.31c-.12-.05-.23-.07-.32-.07-.56,0-.74.64-.74,1.22v.89h-.33v-2.37h.33v.58c.12-.4.37-.64.74-.64.13,0,.28.03.38.07Z"/><path d="m138.69,257.62h.35l-1.49,3.53h-.35l.49-1.18-.98-2.35h.35l.81,1.94.82-1.94Z"/></g><rect class="bj" x="110.62" y="264.32" width="7.03" height="7.03" rx="2" ry="2"/><g><path d="m123.8,266.3h-1.64v1.31h1.3v.31h-1.3v1.56h-.34v-3.5h1.97v.31Z"/><path d="m126.39,268.43h-2.04c.06.51.41.8.89.8.33,0,.61-.16.77-.42l.28.12c-.21.38-.61.6-1.06.6-.67,0-1.2-.5-1.2-1.25s.53-1.24,1.2-1.24,1.17.49,1.17,1.24c0,.05,0,.1-.01.14Zm-.31-.28c-.05-.49-.39-.79-.85-.79s-.81.28-.87.79h1.72Z"/><path d="m129.51,268.29c0,.72-.54,1.25-1.2,1.25-.4,0-.77-.2-.95-.53v.47h-.33v-3.66h.33v1.75c.18-.33.54-.52.95-.52.67,0,1.2.52,1.2,1.25Zm-.32,0c0-.52-.41-.93-.91-.93-.47,0-.92.37-.92.95s.43.93.92.93.91-.42.91-.94Z"/><path d="m131.61,267.12l-.06.31c-.12-.05-.23-.07-.32-.07-.56,0-.74.64-.74,1.22v.89h-.33v-2.37h.33v.58c.12-.4.37-.64.74-.64.13,0,.28.03.38.07Z"/><path d="m133.82,267.11h.33v2.37h-.33v-.42c-.14.33-.53.48-.82.48-.57,0-.97-.4-.96-1.05v-1.38h.33v1.38c0,.46.28.75.67.75s.78-.22.79-.8v-1.33Z"/><path d="m136.94,267.11h.33v2.37h-.33v-.49c-.17.33-.54.55-.96.55-.65,0-1.19-.54-1.19-1.25s.52-1.25,1.2-1.25c.41,0,.77.2.95.52v-.46Zm0,1.19c0-.55-.45-.95-.92-.95s-.9.43-.9.94.41.94.91.94.92-.4.92-.93Z"/><path d="m139.53,267.12l-.06.31c-.12-.05-.23-.07-.32-.07-.56,0-.74.64-.74,1.22v.89h-.33v-2.37h.33v.58c.12-.4.37-.64.74-.64.13,0,.28.03.38.07Z"/><path d="m141.66,267.11h.35l-1.49,3.53h-.35l.49-1.18-.98-2.35h.35l.81,1.94.82-1.94Z"/></g><rect class="bj" x="110.62" y="273.8" width="7.03" height="7.03" rx="2" ry="2"/><g><path d="m125.81,278.97h-.33l-.36-2.9-1.25,2.54h-.31l-1.25-2.55-.36,2.91h-.33l.43-3.5h.31l1.35,2.78,1.35-2.78h.31l.44,3.5Z"/><path d="m128.5,276.59h.33v2.37h-.33v-.49c-.17.33-.54.55-.96.55-.65,0-1.19-.54-1.19-1.25s.52-1.25,1.2-1.25c.41,0,.77.2.95.52v-.46Zm0,1.19c0-.55-.45-.95-.92-.95s-.9.43-.9.94.41.94.91.94.92-.4.92-.93Z"/><path d="m131.08,276.6l-.06.31c-.12-.05-.23-.07-.32-.07-.56,0-.74.64-.74,1.22v.89h-.33v-2.37h.33v.58c.12-.4.37-.64.74-.64.13,0,.28.03.38.07Z"/><path d="m131.24,277.78c0-.75.58-1.25,1.26-1.25.34,0,.64.13.85.33l-.2.22c-.16-.15-.39-.24-.64-.24-.52,0-.95.38-.95.94s.42.94.95.94c.25,0,.47-.09.64-.24l.2.22c-.21.2-.52.33-.85.33-.68,0-1.26-.5-1.26-1.25Z"/><path d="m136.06,277.58v1.38h-.33v-1.37c0-.46-.29-.75-.67-.75s-.78.22-.79.8v1.32h-.33v-3.66h.33v1.72c.14-.34.53-.49.82-.49.57,0,.97.4.97,1.05Z"/></g><rect class="bj" x="110.62" y="283.29" width="7.03" height="7.03" rx="2" ry="2"/><g><path d="m124.02,288.45l-.35-.93h-1.62l-.35.93h-.36l1.34-3.5h.36l1.33,3.5h-.35Zm-1.85-1.23h1.38l-.69-1.83-.69,1.83Z"/><path d="m127.28,287.27c0,.72-.54,1.25-1.2,1.25-.4,0-.77-.2-.95-.52v1.62h-.33v-3.53h.33v.47c.17-.33.55-.53.95-.53.67,0,1.2.53,1.2,1.25Zm-.32,0c0-.53-.41-.95-.91-.95s-.92.38-.92.93.45.94.92.94c.5,0,.91-.41.91-.93Z"/><path d="m129.38,286.09l-.06.31c-.12-.05-.23-.07-.32-.07-.56,0-.74.64-.74,1.22v.89h-.33v-2.37h.33v.58c.12-.4.37-.64.74-.64.13,0,.28.03.38.07Z"/><path d="m129.75,285.2c0-.14.12-.23.25-.23.14,0,.25.1.25.23s-.11.23-.25.23c-.13,0-.25-.1-.25-.23Zm.09,3.25v-2.37h.33v2.37h-.33Z"/><path d="m130.97,288.45v-3.66h.33v3.66h-.33Z"/></g><polyline id="ar" class="bt" points="112 267.14 114 270 118 264"/></g><g id="as"><polyline class="bk" points="177.5 240.73 105.88 240.73 105.88 210.39"/><polyline id="at" class="bl" points="176.2 215.64 161.19 223 148.21 223.53 131.44 233.92 111.22 234.48"/><polyline id="au" class="bq" points="111.22 230.41 129.56 216.31 147.73 219.88 161.31 214.7 176.2 212.88"/><g><path d="m110.85,247.49l.03-.25c.06.02.18.02.22.02.41,0,.56-.28.56-.62v-2.83h.27v2.83c0,.48-.23.88-.83.88-.07,0-.17-.02-.25-.03Z"/><path d="m114.2,244.7h.26v1.88h-.26v-.39c-.14.26-.43.44-.76.44-.51,0-.94-.43-.94-.99s.42-.99.95-.99c.32,0,.61.16.75.42v-.37Zm0,.95c0-.44-.35-.75-.73-.75s-.72.34-.72.74.32.75.72.75.73-.31.73-.74Z"/><path d="m116.78,245.49v1.1h-.26v-1.08c0-.36-.23-.59-.53-.59s-.62.18-.63.63v1.04h-.26v-1.88h.26v.34c.11-.27.42-.39.65-.39.46,0,.77.31.77.83Z"/></g><g><path d="m129.61,244.06h-1.3v1.04h1.03v.25h-1.03v1.24h-.27v-2.78h1.56v.25Z"/><path d="m131.67,245.75h-1.62c.04.4.33.64.71.64.26,0,.49-.12.61-.33l.22.1c-.17.3-.49.48-.84.48-.53,0-.95-.4-.95-1s.42-.98.95-.98.93.39.93.98c0,.04,0,.08,0,.11Zm-.25-.22c-.04-.39-.31-.63-.67-.63s-.64.23-.69.63h1.37Z"/><path d="m134.15,245.64c0,.57-.43.99-.96.99-.31,0-.61-.16-.75-.42v.37h-.26v-2.9h.26v1.39c.14-.26.43-.42.75-.42.53,0,.96.42.96.99Zm-.25,0c0-.41-.32-.74-.72-.74-.37,0-.73.29-.73.75s.34.74.73.74.72-.33.72-.75Z"/></g><g><path d="m147.62,246.58h-.26l-.29-2.3-.99,2.01h-.25l-1-2.02-.29,2.31h-.26l.34-2.78h.25l1.07,2.2,1.07-2.2h.25l.35,2.78Z"/><path d="m149.76,244.7h.26v1.88h-.26v-.39c-.14.26-.43.44-.76.44-.51,0-.94-.43-.94-.99s.42-.99.95-.99c.32,0,.61.16.75.42v-.37Zm0,.95c0-.44-.35-.75-.73-.75s-.72.34-.72.74.32.75.72.75.73-.31.73-.74Z"/><path d="m151.81,244.71l-.05.25c-.1-.04-.19-.05-.25-.05-.45,0-.58.51-.58.97v.71h-.26v-1.88h.26v.46c.09-.32.29-.51.59-.51.1,0,.23.02.3.06Z"/></g><g><path d="m162.61,246.58l-.28-.74h-1.28l-.28.74h-.28l1.06-2.78h.28l1.06,2.78h-.28Zm-1.47-.97h1.1l-.55-1.45-.55,1.45Z"/><path d="m165.2,245.65c0,.57-.43.99-.96.99-.32,0-.61-.16-.75-.42v1.28h-.26v-2.8h.26v.37c.14-.26.44-.42.75-.42.53,0,.96.42.96.99Zm-.25,0c0-.42-.32-.75-.72-.75s-.73.3-.73.74.35.75.73.75c.4,0,.72-.32.72-.74Z"/><path d="m166.87,244.71l-.05.25c-.1-.04-.19-.05-.25-.05-.45,0-.58.51-.58.97v.71h-.26v-1.88h.26v.46c.09-.32.29-.51.59-.51.1,0,.23.02.3.06Z"/></g><line class="bk" x1="105.88" y1="240.73" x2="105.88" y2="243.56"/><line class="bk" x1="122.83" y1="240.73" x2="122.83" y2="243.56"/><line class="bk" x1="138.84" y1="240.73" x2="138.84" y2="243.56"/><line class="bk" x1="154.86" y1="240.73" x2="154.86" y2="243.56"/><line class="bk" x1="170.87" y1="240.73" x2="170.87" y2="243.56"/></g><g id="av"><g><path d="m107.32,193.77h.36l-1.18,3.5h-.31l-.7-2.43-.7,2.43h-.31l-1.18-3.5h.36l.98,2.98.72-2.47h.29l.72,2.48.98-2.99Z"/><path d="m110.3,195.89v1.38h-.33v-1.37c0-.46-.29-.75-.67-.75s-.78.22-.79.8v1.32h-.33v-3.66h.33v1.72c.14-.34.53-.49.82-.49.57,0,.97.4.97,1.05Z"/><path d="m110.99,194.03c0-.14.12-.23.25-.23.14,0,.25.1.25.23s-.11.23-.25.23c-.13,0-.25-.1-.25-.23Zm.09,3.25v-2.37h.33v2.37h-.33Z"/><path d="m112.05,196.09c0-.75.58-1.25,1.26-1.25.34,0,.64.13.85.33l-.2.22c-.16-.15-.39-.24-.64-.24-.52,0-.95.38-.95.94s.42.94.95.94c.25,0,.47-.09.64-.24l.2.22c-.21.2-.52.33-.85.33-.68,0-1.26-.5-1.26-1.25Z"/><path d="m116.87,195.89v1.38h-.33v-1.37c0-.46-.29-.75-.67-.75s-.78.22-.79.8v1.32h-.33v-3.66h.33v1.72c.14-.34.53-.49.82-.49.57,0,.97.4.97,1.05Z"/><path d="m122.77,195.89v1.38h-.33v-1.37c0-.46-.27-.75-.67-.75-.45,0-.74.27-.74.91v1.21h-.32v-1.37c0-.46-.27-.75-.65-.75s-.75.23-.76.8v1.32h-.33v-2.37h.33v.42c.12-.31.46-.48.81-.48.38,0,.7.2.83.57.18-.47.59-.57.87-.57.57,0,.94.4.94,1.05Z"/><path d="m123.39,196.09c0-.75.56-1.25,1.24-1.25s1.24.49,1.24,1.25-.57,1.25-1.24,1.25-1.24-.5-1.24-1.25Zm2.16,0c0-.56-.42-.94-.92-.94s-.91.38-.91.94.41.94.91.94.92-.38.92-.94Z"/><path d="m128.63,195.89v1.38h-.33v-1.37c0-.46-.29-.75-.67-.75s-.78.22-.79.8v1.32h-.33v-2.37h.33v.43c.14-.34.53-.49.82-.49.57,0,.97.4.97,1.05Z"/><path d="m130.4,194.9v.28h-.54v2.09h-.32v-2.09h-.43v-.28h.43v-.89h.32v.89h.54Z"/><path d="m133.02,195.89v1.38h-.33v-1.37c0-.46-.29-.75-.67-.75s-.78.22-.79.8v1.32h-.33v-3.66h.33v1.72c.14-.34.53-.49.82-.49.57,0,.97.4.97,1.05Z"/><path d="m137.24,195.89v1.38h-.33v-1.37c0-.46-.29-.75-.67-.75s-.78.22-.79.8v1.32h-.33v-3.66h.33v1.72c.14-.34.53-.49.82-.49.57,0,.97.4.97,1.05Z"/><path d="m140,194.9h.33v2.37h-.33v-.49c-.17.33-.54.55-.96.55-.65,0-1.19-.54-1.19-1.25s.52-1.25,1.2-1.25c.41,0,.77.2.95.52v-.46Zm0,1.19c0-.55-.45-.95-.92-.95s-.9.43-.9.94.41.94.91.94.92-.4.92-.93Z"/><path d="m143.13,193.61h.33v3.66h-.33v-.46c-.18.33-.55.52-.94.52-.66,0-1.2-.53-1.2-1.25s.54-1.25,1.2-1.25c.4,0,.77.19.94.52v-1.75Zm0,2.48c0-.57-.45-.95-.92-.95-.5,0-.9.41-.9.93s.41.94.9.94.92-.38.92-.93Z"/><path d="m146.62,194.9v.28h-.54v2.09h-.32v-2.09h-.43v-.28h.43v-.89h.32v.89h.54Z"/><path d="m149.24,195.89v1.38h-.33v-1.37c0-.46-.29-.75-.67-.75s-.78.22-.79.8v1.32h-.33v-3.66h.33v1.72c.14-.34.53-.49.82-.49.57,0,.97.4.97,1.05Z"/><path d="m152.23,196.22h-2.04c.06.51.41.8.89.8.33,0,.61-.16.77-.42l.28.12c-.21.38-.61.6-1.06.6-.67,0-1.2-.5-1.2-1.25s.53-1.24,1.2-1.24,1.17.49,1.17,1.24c0,.05,0,.1-.01.14Zm-.31-.28c-.05-.49-.39-.79-.85-.79s-.81.28-.87.79h1.72Z"/><path d="m154.21,197.27v-3.66h.33v3.66h-.33Z"/><path d="m157.33,194.9h.33v2.37h-.33v-.49c-.17.33-.54.55-.96.55-.65,0-1.19-.54-1.19-1.25s.52-1.25,1.2-1.25c.41,0,.77.2.95.52v-.46Zm0,1.19c0-.55-.45-.95-.92-.95s-.9.43-.9.94.41.94.91.94.92-.4.92-.93Z"/><path d="m159.92,194.91l-.06.31c-.12-.05-.23-.07-.32-.07-.56,0-.74.64-.74,1.22v.89h-.33v-2.37h.33v.58c.12-.4.37-.64.74-.64.13,0,.28.03.38.07Z"/><path d="m162.23,194.9h.33v2.05c0,1.15-.51,1.54-1.29,1.54-.4,0-.79-.2-1.03-.58l.27-.15c.17.28.47.43.75.43.58,0,.96-.29.96-1.21v-.15c-.18.32-.55.52-.94.52-.66,0-1.2-.53-1.2-1.25s.54-1.25,1.2-1.25c.4,0,.77.2.94.52v-.46Zm0,1.19c0-.57-.45-.95-.92-.95-.5,0-.9.41-.9.93s.41.94.9.94.92-.38.92-.93Z"/><path d="m165.58,196.22h-2.04c.06.51.41.8.89.8.33,0,.61-.16.77-.42l.28.12c-.21.38-.61.6-1.06.6-.67,0-1.2-.5-1.2-1.25s.53-1.24,1.2-1.24,1.17.49,1.17,1.24c0,.05,0,.1-.01.14Zm-.31-.28c-.05-.49-.39-.79-.85-.79s-.81.28-.87.79h1.72Z"/><path d="m166.03,196.65h.3c.04.2.22.4.56.4s.55-.18.55-.42c0-.19-.13-.32-.38-.38l-.34-.08c-.34-.08-.6-.25-.6-.65s.33-.68.78-.68c.4,0,.76.22.78.65h-.31c-.02-.21-.22-.36-.46-.36-.27,0-.46.17-.46.39s.19.32.37.36l.35.09c.46.11.6.39.6.67,0,.42-.38.7-.87.7-.41,0-.82-.24-.86-.69Z"/><path d="m169.43,194.9v.28h-.54v2.09h-.32v-2.09h-.43v-.28h.43v-.89h.32v.89h.54Z"/><path d="m104.62,202.52v.28h-.54v2.09h-.32v-2.09h-.43v-.28h.43v-.89h.32v.89h.54Z"/><path d="m107.27,203.85h-2.04c.06.51.41.8.89.8.33,0,.61-.16.77-.42l.28.12c-.21.38-.61.6-1.06.6-.67,0-1.2-.5-1.2-1.25s.53-1.24,1.2-1.24,1.17.49,1.17,1.24c0,.05,0,.1-.01.14Zm-.31-.28c-.05-.49-.39-.79-.85-.79s-.81.28-.87.79h1.72Z"/><path d="m111.7,203.52v1.38h-.33v-1.37c0-.46-.27-.75-.67-.75-.45,0-.74.27-.74.91v1.21h-.32v-1.37c0-.46-.27-.75-.65-.75s-.75.23-.76.8v1.32h-.33v-2.37h.33v.42c.12-.31.46-.48.81-.48.38,0,.7.2.83.57.18-.47.59-.57.87-.57.57,0,.94.4.94,1.05Z"/><path d="m114.96,203.71c0,.72-.54,1.25-1.2,1.25-.4,0-.77-.2-.95-.52v1.62h-.33v-3.53h.33v.47c.17-.33.55-.53.95-.53.67,0,1.2.53,1.2,1.25Zm-.32,0c0-.53-.41-.95-.91-.95s-.92.38-.92.93.45.94.92.94c.5,0,.91-.41.91-.93Z"/><path d="m117.82,203.85h-2.04c.06.51.41.8.89.8.33,0,.61-.16.77-.42l.28.12c-.21.38-.61.6-1.06.6-.67,0-1.2-.5-1.2-1.25s.53-1.24,1.2-1.24,1.17.49,1.17,1.24c0,.05,0,.1-.01.14Zm-.31-.28c-.05-.49-.39-.79-.85-.79s-.81.28-.87.79h1.72Z"/><path d="m119.92,202.53l-.06.31c-.12-.05-.23-.07-.32-.07-.56,0-.74.64-.74,1.22v.89h-.33v-2.37h.33v.58c.12-.4.37-.64.74-.64.13,0,.28.03.38.07Z"/><path d="m122.23,202.52h.33v2.37h-.33v-.49c-.17.33-.54.55-.96.55-.65,0-1.19-.54-1.19-1.25s.52-1.25,1.2-1.25c.41,0,.77.2.95.52v-.46Zm0,1.19c0-.55-.45-.95-.92-.95s-.9.43-.9.94.41.94.91.94.92-.4.92-.93Z"/><path d="m124.39,202.52v.28h-.54v2.09h-.32v-2.09h-.43v-.28h.43v-.89h.32v.89h.54Z"/><path d="m126.65,202.52h.33v2.37h-.33v-.42c-.14.34-.53.48-.82.48-.57,0-.97-.4-.96-1.05v-1.38h.33v1.38c0,.46.28.75.67.75s.78-.22.79-.8v-1.33Z"/><path d="m129.24,202.53l-.06.31c-.12-.05-.23-.07-.32-.07-.56,0-.74.64-.74,1.22v.89h-.33v-2.37h.33v.58c.12-.4.37-.64.74-.64.13,0,.28.03.38.07Z"/><path d="m131.77,203.85h-2.04c.06.51.41.8.89.8.33,0,.61-.16.77-.42l.28.12c-.21.38-.61.6-1.06.6-.67,0-1.2-.5-1.2-1.25s.53-1.24,1.2-1.24,1.17.49,1.17,1.24c0,.05,0,.1-.01.14Zm-.31-.28c-.05-.49-.39-.79-.85-.79s-.81.28-.87.79h1.72Z"/><path d="m135.73,201.23h.33v3.66h-.33v-.46c-.18.33-.55.52-.94.52-.66,0-1.2-.53-1.2-1.25s.54-1.25,1.2-1.25c.4,0,.77.19.94.52v-1.75Zm0,2.48c0-.57-.45-.95-.92-.95-.5,0-.9.41-.9.93s.41.94.9.94.92-.38.92-.93Z"/><path d="m136.79,201.65c0-.14.12-.23.25-.23.14,0,.25.1.25.23s-.11.23-.25.23c-.13,0-.25-.1-.25-.23Zm.09,3.25v-2.37h.33v2.37h-.33Z"/><path d="m140.75,201.54c-.45,0-.57.3-.57.68v.3h.6v.28h-.6v2.09h-.33v-2.09h-1.34v2.09h-.33v-2.09h-.47v-.28h.47v-.26c0-.59.23-1.03.85-1.03h.22v.31h-.18c-.45,0-.57.3-.57.68v.3h1.34v-.26c0-.59.23-1.03.85-1.03h.22v.31h-.18Z"/><path d="m143.42,203.85h-2.04c.06.51.41.8.89.8.33,0,.61-.16.77-.42l.28.12c-.21.38-.61.6-1.06.6-.67,0-1.2-.5-1.2-1.25s.53-1.24,1.2-1.24,1.17.49,1.17,1.24c0,.05,0,.1-.01.14Zm-.31-.28c-.05-.49-.39-.79-.85-.79s-.81.28-.87.79h1.72Z"/><path d="m145.52,202.53l-.06.31c-.12-.05-.23-.07-.32-.07-.56,0-.74.64-.74,1.22v.89h-.33v-2.37h.33v.58c.12-.4.37-.64.74-.64.13,0,.28.03.38.07Z"/><path d="m148.05,203.85h-2.04c.06.51.41.8.89.8.33,0,.61-.16.77-.42l.28.12c-.21.38-.61.6-1.06.6-.67,0-1.2-.5-1.2-1.25s.53-1.24,1.2-1.24,1.17.49,1.17,1.24c0,.05,0,.1-.01.14Zm-.31-.28c-.05-.49-.39-.79-.85-.79s-.81.28-.87.79h1.72Z"/><path d="m150.81,203.52v1.38h-.33v-1.37c0-.46-.29-.75-.67-.75s-.78.22-.79.8v1.32h-.33v-2.37h.33v.43c.14-.34.53-.49.82-.49.57,0,.97.4.97,1.05Z"/><path d="m151.42,203.71c0-.75.58-1.25,1.26-1.25.34,0,.64.13.85.33l-.2.22c-.16-.15-.39-.24-.64-.24-.52,0-.95.38-.95.94s.42.94.95.94c.25,0,.47-.09.64-.24l.2.22c-.21.2-.52.33-.85.33-.68,0-1.26-.5-1.26-1.25Z"/><path d="m156.27,203.85h-2.04c.06.51.41.8.89.8.33,0,.61-.16.77-.42l.28.12c-.21.38-.61.6-1.06.6-.67,0-1.2-.5-1.2-1.25s.53-1.24,1.2-1.24,1.17.49,1.17,1.24c0,.05,0,.1-.01.14Zm-.31-.28c-.05-.49-.39-.79-.85-.79s-.81.28-.87.79h1.72Z"/><path d="m157.24,203.98v-.25c-.01-.43.18-.59.46-.7l.2-.07c.27-.09.49-.33.49-.66,0-.41-.3-.66-.67-.66-.34,0-.66.24-.69.66h-.31c.02-.59.48-.96,1-.96s1,.38,1,.97c0,.48-.33.84-.72.96-.25.08-.44.16-.44.47v.25h-.32Zm-.1.72c0-.14.12-.24.26-.24s.25.1.25.24-.11.24-.25.24-.26-.1-.26-.24Z"/></g></g></g><g id="aw"><g id="ax"><rect class="bs" x="109" y="168.71" width="66.5" height="13.77" rx="3" ry="3"/><g><path class="cb" d="m116.14,176.41v.46h-1.73v-.46h1.73Z"/><path class="cb" d="m118.26,177.9c.18.12.5.25.81.25.45,0,.66-.22.66-.5s-.17-.46-.63-.62c-.61-.22-.9-.55-.9-.96,0-.55.44-.99,1.17-.99.34,0,.64.1.83.21l-.15.45c-.13-.08-.38-.2-.69-.2-.36,0-.57.21-.57.46,0,.28.2.41.64.57.59.22.89.52.89,1.02,0,.6-.46,1.02-1.27,1.02-.37,0-.71-.09-.95-.23l.15-.47Z"/><path class="cb" d="m121.46,176.95c.01.83.55,1.18,1.16,1.18.44,0,.71-.08.94-.18l.1.44c-.22.1-.59.21-1.13.21-1.04,0-1.67-.69-1.67-1.71s.6-1.83,1.59-1.83c1.11,0,1.4.97,1.4,1.6,0,.13-.01.22-.02.29h-2.38Zm1.81-.44c0-.39-.16-1-.85-1-.62,0-.9.57-.95,1h1.8Z"/><path class="cb" d="m124.63,173.56h.62v4.97h-.62v-4.97Z"/><path class="cb" d="m126.62,176.95c.01.83.55,1.18,1.16,1.18.44,0,.71-.08.94-.18l.1.44c-.22.1-.59.21-1.13.21-1.04,0-1.67-.69-1.67-1.71s.6-1.83,1.59-1.83c1.11,0,1.4.97,1.4,1.6,0,.13-.01.22-.02.29h-2.38Zm1.81-.44c0-.39-.16-1-.85-1-.62,0-.9.57-.95,1h1.8Z"/><path class="cb" d="m132.2,178.41c-.16.08-.52.2-.97.2-1.02,0-1.69-.69-1.69-1.73s.71-1.8,1.82-1.8c.36,0,.69.09.85.18l-.14.48c-.15-.08-.38-.16-.71-.16-.78,0-1.2.57-1.2,1.28,0,.78.5,1.27,1.18,1.27.35,0,.58-.09.76-.17l.1.46Z"/><path class="cb" d="m133.75,174.17v.97h.88v.47h-.88v1.83c0,.42.12.66.46.66.16,0,.28-.02.36-.04l.03.46c-.12.05-.31.08-.55.08-.29,0-.52-.09-.67-.26-.18-.18-.24-.48-.24-.88v-1.85h-.53v-.47h.53v-.81l.6-.16Z"/><path class="cb" d="m138.24,176.41v.46h-1.73v-.46h1.73Z"/></g><path class="cb" d="m165.69,177.38l-1.57-2.54c-.25-.41.02-.95.49-.95h3.13c.46,0,.74.54.49.95l-1.57,2.54c-.23.37-.74.37-.97,0Z"/></g><g id="ay"><g><path d="m107.32,160.36h.36l-1.18,3.5h-.31l-.7-2.43-.7,2.43h-.31l-1.18-3.5h.36l.98,2.98.72-2.47h.29l.72,2.48.98-2.99Z"/><path d="m110.3,162.48v1.38h-.33v-1.37c0-.46-.29-.75-.67-.75s-.78.22-.79.8v1.32h-.33v-3.66h.33v1.72c.14-.34.53-.49.82-.49.57,0,.97.4.97,1.05Z"/><path d="m110.99,160.61c0-.14.12-.23.25-.23.14,0,.25.1.25.23s-.11.23-.25.23c-.13,0-.25-.1-.25-.23Zm.09,3.25v-2.37h.33v2.37h-.33Z"/><path d="m112.05,162.67c0-.75.58-1.25,1.26-1.25.34,0,.64.13.85.33l-.2.22c-.16-.15-.39-.24-.64-.24-.52,0-.95.38-.95.94s.42.94.95.94c.25,0,.47-.09.64-.24l.2.22c-.21.2-.52.33-.85.33-.68,0-1.26-.5-1.26-1.25Z"/><path d="m116.87,162.48v1.38h-.33v-1.37c0-.46-.29-.75-.67-.75s-.78.22-.79.8v1.32h-.33v-3.66h.33v1.72c.14-.34.53-.49.82-.49.57,0,.97.4.97,1.05Z"/><path d="m118.89,160.61c0-.14.12-.23.25-.23.14,0,.25.1.25.23s-.11.23-.25.23c-.13,0-.25-.1-.25-.23Zm.09,3.25v-2.37h.33v2.37h-.33Z"/><path d="m119.93,163.23h.3c.04.2.22.4.56.4s.55-.18.55-.42c0-.19-.13-.32-.38-.38l-.34-.08c-.34-.08-.6-.25-.6-.65s.33-.68.78-.68c.4,0,.76.22.78.65h-.31c-.02-.21-.22-.36-.46-.36-.27,0-.46.17-.46.39s.19.32.37.36l.35.09c.46.11.6.39.6.67,0,.42-.38.7-.87.7-.41,0-.82-.24-.86-.69Z"/><path d="m124.66,161.49v.28h-.54v2.09h-.32v-2.09h-.43v-.28h.43v-.89h.32v.89h.54Z"/><path d="m127.27,162.48v1.38h-.33v-1.37c0-.46-.29-.75-.67-.75s-.78.22-.79.8v1.32h-.33v-3.66h.33v1.72c.14-.34.53-.49.82-.49.57,0,.97.4.97,1.05Z"/><path d="m130.26,162.81h-2.04c.06.51.41.8.89.8.33,0,.61-.16.77-.42l.28.12c-.21.38-.61.6-1.06.6-.67,0-1.2-.5-1.2-1.25s.53-1.24,1.2-1.24,1.17.49,1.17,1.24c0,.05,0,.1-.01.14Zm-.31-.28c-.05-.49-.39-.79-.85-.79s-.81.28-.87.79h1.72Z"/><path d="m132.24,163.86v-3.66h.33v3.66h-.33Z"/><path d="m135.36,161.49h.33v2.37h-.33v-.49c-.17.33-.54.55-.96.55-.65,0-1.19-.54-1.19-1.25s.52-1.25,1.2-1.25c.41,0,.77.2.95.52v-.46Zm0,1.19c0-.55-.45-.95-.92-.95s-.9.43-.9.94.41.94.91.94.92-.4.92-.93Z"/><path d="m137.95,161.5l-.06.31c-.12-.05-.23-.07-.32-.07-.56,0-.74.64-.74,1.22v.89h-.33v-2.37h.33v.58c.12-.4.37-.64.74-.64.13,0,.28.03.38.07Z"/><path d="m140.26,161.49h.33v2.05c0,1.15-.51,1.54-1.29,1.54-.4,0-.79-.2-1.03-.58l.27-.15c.17.28.47.43.75.43.58,0,.96-.29.96-1.21v-.15c-.18.32-.55.52-.94.52-.66,0-1.2-.53-1.2-1.25s.54-1.25,1.2-1.25c.4,0,.77.2.94.52v-.46Zm0,1.19c0-.57-.45-.95-.92-.95-.5,0-.9.41-.9.93s.41.94.9.94.92-.38.92-.93Z"/><path d="m143.61,162.81h-2.04c.06.51.41.8.89.8.33,0,.61-.16.77-.42l.28.12c-.21.38-.61.6-1.06.6-.67,0-1.2-.5-1.2-1.25s.53-1.24,1.2-1.24,1.17.49,1.17,1.24c0,.05,0,.1-.01.14Zm-.31-.28c-.05-.49-.39-.79-.85-.79s-.81.28-.87.79h1.72Z"/><path d="m144.06,163.23h.3c.04.2.22.4.56.4s.55-.18.55-.42c0-.19-.13-.32-.38-.38l-.34-.08c-.34-.08-.6-.25-.6-.65s.33-.68.78-.68c.4,0,.76.22.78.65h-.31c-.02-.21-.22-.36-.46-.36-.27,0-.46.17-.46.39s.19.32.37.36l.35.09c.46.11.6.39.6.67,0,.42-.38.7-.87.7-.41,0-.82-.24-.86-.69Z"/><path d="m147.46,161.49v.28h-.54v2.09h-.32v-2.09h-.43v-.28h.43v-.89h.32v.89h.54Z"/><path d="m149.06,163.23h.3c.04.2.22.4.56.4s.55-.18.55-.42c0-.19-.13-.32-.38-.38l-.34-.08c-.34-.08-.6-.25-.6-.65s.33-.68.78-.68c.4,0,.76.22.78.65h-.31c-.02-.21-.22-.36-.46-.36-.27,0-.46.17-.46.39s.19.32.37.36l.35.09c.46.11.6.39.6.67,0,.42-.38.7-.87.7-.41,0-.82-.24-.86-.69Z"/><path d="m152.46,161.49v.28h-.54v2.09h-.32v-2.09h-.43v-.28h.43v-.89h.32v.89h.54Z"/><path d="m154.89,161.49h.33v2.37h-.33v-.49c-.17.33-.54.55-.96.55-.65,0-1.19-.54-1.19-1.25s.52-1.25,1.2-1.25c.41,0,.77.2.95.52v-.46Zm0,1.19c0-.55-.45-.95-.92-.95s-.9.43-.9.94.41.94.91.94.92-.4.92-.93Z"/><path d="m157.06,161.49v.28h-.54v2.09h-.32v-2.09h-.43v-.28h.43v-.89h.32v.89h.54Z"/><path d="m159.71,162.81h-2.04c.06.51.41.8.89.8.33,0,.61-.16.77-.42l.28.12c-.21.38-.61.6-1.06.6-.67,0-1.2-.5-1.2-1.25s.53-1.24,1.2-1.24,1.17.49,1.17,1.24c0,.05,0,.1-.01.14Zm-.31-.28c-.05-.49-.39-.79-.85-.79s-.81.28-.87.79h1.72Z"/><path d="m160.68,162.94v-.25c-.01-.43.18-.59.46-.7l.2-.07c.27-.09.49-.33.49-.66,0-.41-.3-.66-.67-.66-.34,0-.66.24-.69.66h-.31c.02-.59.48-.96,1-.96s1,.38,1,.97c0,.48-.33.84-.72.96-.25.08-.44.16-.44.47v.25h-.32Zm-.1.72c0-.14.12-.24.26-.24s.25.1.25.24-.11.24-.25.24-.26-.1-.26-.24Z"/></g></g></g><g id="az"><rect class="ch" x="149.66" y="299.4" width="35.11" height="12.11" rx="6.05" ry="6.05"/><g><path class="bc" d="m157.65,306.17h.38c.04.4.4.78.97.78.64,0,.96-.42.96-.8,0-.44-.39-.65-.79-.75l-.54-.13c-.84-.2-.96-.69-.96-1.01,0-.67.62-1.12,1.28-1.12s1.22.42,1.25,1.1h-.38c-.02-.45-.4-.73-.88-.73s-.88.31-.88.76c0,.19.06.5.66.65l.55.14c.64.16,1.08.49,1.08,1.08s-.47,1.18-1.35,1.18c-.8,0-1.32-.56-1.35-1.14Z"/><path class="bc" d="m163.11,304.5h.38v2.74h-.38v-.48c-.16.39-.61.55-.95.55-.66,0-1.11-.46-1.11-1.21v-1.59h.38v1.59c0,.53.33.86.77.86s.9-.26.91-.92v-1.53Z"/><path class="bc" d="m167.27,305.87c0,.83-.62,1.44-1.39,1.44-.46,0-.89-.23-1.09-.61v.54h-.38v-4.22h.38v2.02c.21-.38.63-.6,1.09-.6.77,0,1.39.6,1.39,1.44Zm-.37,0c0-.6-.47-1.07-1.05-1.07-.54,0-1.06.43-1.06,1.09s.49,1.07,1.06,1.07,1.05-.48,1.05-1.09Z"/><path class="bc" d="m172.39,305.65v1.59h-.38v-1.58c0-.53-.32-.87-.77-.87-.52,0-.86.32-.86,1.05v1.39h-.37v-1.58c0-.53-.32-.87-.75-.87s-.86.27-.87.93v1.52h-.38v-2.74h.38v.49c.13-.36.53-.56.94-.56.44,0,.81.23.96.66.21-.54.69-.66,1.01-.66.66,0,1.08.46,1.08,1.21Z"/><path class="bc" d="m173.2,303.5c0-.16.13-.27.29-.27.16,0,.29.11.29.27s-.13.26-.29.26c-.15,0-.29-.11-.29-.26Zm.1,3.74v-2.74h.38v2.74h-.38Z"/><path class="bc" d="m175.79,304.5v.32h-.63v2.41h-.37v-2.41h-.5v-.32h.5v-1.03h.37v1.03h.63Z"/></g><g><path d="m102.58,304.38v.4l-2.47.93,2.47.93v.39l-2.98-1.13v-.38l2.98-1.14Z"/><path d="m106.72,303.2c.83,0,1.15.61,1.15,1.23s-.33,1.23-1.17,1.23h-1.18v1.58h-.39v-4.04h1.59Zm-.04,2.1c.58,0,.8-.43.8-.87s-.22-.87-.77-.87h-1.2v1.73h1.17Z"/><path d="m110.19,304.52l-.07.36c-.14-.06-.27-.08-.37-.08-.65,0-.85.74-.85,1.41v1.03h-.38v-2.74h.38v.67c.13-.46.43-.74.86-.74.15,0,.33.03.43.08Z"/><path d="m113.12,306.03h-2.36c.06.59.47.93,1.03.93.38,0,.71-.18.89-.48l.32.14c-.24.44-.71.7-1.22.7-.77,0-1.39-.58-1.39-1.45s.62-1.43,1.39-1.43,1.35.56,1.35,1.43c0,.05,0,.11-.01.16Zm-.36-.32c-.05-.57-.45-.91-.98-.91s-.93.33-1.01.91h1.99Z"/><path d="m115.73,304.5h.4l-1.16,2.74h-.39l-1.14-2.74h.4l.94,2.28.95-2.28Z"/><path d="m116.63,303.5c0-.16.13-.27.29-.27.16,0,.29.11.29.27s-.13.26-.29.26c-.15,0-.29-.11-.29-.26Zm.1,3.74v-2.74h.38v2.74h-.38Z"/><path d="m117.85,305.87c0-.87.65-1.44,1.43-1.44s1.44.57,1.44,1.44-.66,1.44-1.44,1.44-1.43-.57-1.43-1.44Zm2.49,0c0-.64-.49-1.08-1.06-1.08s-1.05.43-1.05,1.08.47,1.08,1.05,1.08,1.06-.44,1.06-1.08Z"/><path d="m123.49,304.5h.38v2.74h-.38v-.48c-.16.39-.61.55-.95.55-.66,0-1.11-.46-1.11-1.21v-1.59h.38v1.59c0,.53.33.86.77.86s.9-.26.91-.92v-1.53Z"/><path d="m124.58,306.51h.35c.04.23.25.46.65.46s.63-.21.63-.48c0-.22-.15-.37-.43-.44l-.39-.09c-.39-.09-.7-.29-.7-.75s.38-.78.9-.78c.46,0,.88.25.9.74h-.36c-.02-.25-.26-.41-.53-.41-.32,0-.53.19-.53.45s.22.37.42.42l.4.1c.53.13.7.45.7.77,0,.49-.44.81-1.01.81-.47,0-.95-.28-1-.8Z"/></g></g><g id="ba"><g><path class="bc" d="m171.03,135.77v.21h-.75v2.12h-.22v-2.12h-.74v-.21h1.71Z"/><path class="bc" d="m171.45,138.1v-2.33h.22v2.33h-.22Z"/><path class="bc" d="m175.02,138.1h-.22l-.24-1.93-.83,1.69h-.21l-.84-1.7-.24,1.94h-.22l.29-2.33h.21l.9,1.85.9-1.85h.21l.29,2.33Z"/><path class="bc" d="m175.8,137.89h1.15v.21h-1.37v-2.33h1.33v.21h-1.11v.87h.97v.21h-.97v.83Z"/><path class="bc" d="m178.35,137.19l.64.91h-.27l-.64-.91h-.39v.91h-.22v-2.33h.87c.49,0,.67.35.67.71s-.2.71-.65.71h0Zm-.66-1.21v1h.59c.37,0,.5-.22.5-.5s-.15-.5-.45-.5h-.65Z"/></g><g><path class="bc" d="m166.12,143.11c0-1.14.33-2.04,1.48-2.04s1.46.9,1.46,2.04-.32,2.04-1.46,2.04-1.48-.92-1.48-2.04Zm2.13,0c0-.73-.14-1.3-.65-1.3s-.68.57-.68,1.3.16,1.3.68,1.3.65-.58.65-1.3Z"/><path class="bc" d="m172.73,143.61v.71h-.6v.75h-.8v-.75h-1.9v-.23l2.24-2.96h.47v2.49h.6Zm-2.18,0h.78v-1.04l-.78,1.04Z"/><path class="bc" d="m173.32,142.69c0-.28.23-.49.5-.49s.5.21.5.49-.22.48-.5.48-.5-.2-.5-.48Zm0,1.95c0-.28.23-.48.5-.48s.5.2.5.48-.22.49-.5.49-.5-.21-.5-.49Z"/><path class="bc" d="m176.21,144.33h1.4v.74h-2.66v-.43l1.54-1.85c.16-.2.27-.4.27-.54,0-.27-.22-.45-.52-.45-.35,0-.55.23-.6.57l-.72-.12c.1-.71.55-1.19,1.34-1.19s1.3.48,1.3,1.19c0,.38-.18.72-.43,1l-.93,1.07Z"/><path class="bc" d="m181.2,142.96c0,1.17-.57,2.18-1.67,2.18-.52,0-1.03-.25-1.27-.78l.64-.36c.12.27.37.4.62.4.49,0,.85-.45.88-1.08-.19.2-.48.34-.86.34-.8,0-1.33-.58-1.33-1.27,0-.75.58-1.33,1.46-1.33s1.53.77,1.53,1.89Zm-.87-.55c0-.35-.27-.6-.66-.61-.39,0-.66.25-.66.6s.27.59.64.6c.4,0,.68-.24.69-.58Z"/></g></g><g id="bb"><circle class="bh" cx="105" cy="141" r="7"/><rect class="bz" x="94" y="137.83" width="20" height="6.8"/><g><path class="bc" d="m97.04,140.03h.47l-1.45,3.47h-.46l.49-1.21-.94-2.27h.47l.71,1.72.72-1.72Z"/><path class="bc" d="m97.73,141.19c0-.74.56-1.23,1.22-1.23s1.23.49,1.23,1.23-.56,1.23-1.23,1.23-1.22-.49-1.22-1.23Zm2.01,0c0-.48-.36-.82-.79-.82s-.78.33-.78.82.36.82.78.82.79-.34.79-.82Z"/><path class="bc" d="m102.46,140.03h.44v2.34h-.44v-.37c-.14.3-.52.43-.78.43-.59,0-.95-.39-.94-1.05v-1.35h.44v1.34c0,.4.24.65.56.65s.72-.2.72-.7v-1.29Z"/><path class="bc" d="m105.15,140.06l-.07.41c-.12-.06-.25-.08-.34-.08-.47,0-.65.51-.65,1.12v.86h-.44v-2.34h.44v.53c.12-.41.35-.59.66-.59.17,0,.33.05.41.09Z"/><path class="bc" d="m106.72,142.37v-3.61h.44v3.61h-.44Z"/><path class="bc" d="m107.75,141.19c0-.74.56-1.23,1.22-1.23s1.23.49,1.23,1.23-.56,1.23-1.23,1.23-1.22-.49-1.22-1.23Zm2.01,0c0-.48-.36-.82-.79-.82s-.78.33-.78.82.36.82.78.82.79-.34.79-.82Z"/><path class="bc" d="m112.65,140.03h.44v2.01c0,1.11-.5,1.52-1.27,1.52-.43,0-.82-.22-1.05-.63l.37-.2c.15.27.42.41.68.41.52,0,.84-.29.84-1.08v-.07c-.16.27-.5.43-.83.43-.64,0-1.17-.5-1.17-1.23s.53-1.23,1.17-1.23c.35,0,.68.16.84.43v-.37Zm0,1.16c0-.51-.41-.81-.8-.81-.43,0-.77.34-.77.81s.34.83.77.83.8-.33.8-.83Z"/><path class="bc" d="m113.68,141.19c0-.74.56-1.23,1.22-1.23s1.23.49,1.23,1.23-.56,1.23-1.23,1.23-1.22-.49-1.22-1.23Zm2.01,0c0-.48-.36-.82-.79-.82s-.78.33-.78.82.36.82.78.82.79-.34.79-.82Z"/></g></g></g></g></svg>